Nunito-Light.ufo
<glyph name="quotedbl" format="1">
  <advance width="610"/>
  <unicode hex="0022"/>
  <outline>
    <contour>
      <point x="172" y="1000" type="curve" smooth="yes"/>
      <point x="196" y="1000"/>
      <point x="220" y="1013"/>
      <point x="224" y="1062" type="curve" smooth="yes"/>
      <point x="250" y="1417" type="line"/>
      <point x="254" y="1459"/>
      <point x="212" y="1480"/>
      <point x="173" y="1480" type="curve" smooth="yes"/>
      <point x="131" y="1480"/>
      <point x="90" y="1461"/>
      <point x="94" y="1410" type="curve" smooth="yes"/>
      <point x="94" y="1411"/>
      <point x="126" y="999"/>
      <point x="121" y="1062" type="curve" smooth="yes"/>
      <point x="125" y="1011"/>
      <point x="148" y="1000"/>
    </contour>
    <contour>
      <point x="430" y="1000" type="curve" smooth="yes"/>
      <point x="454" y="1000"/>
      <point x="478" y="1010"/>
      <point x="482" y="1062" type="curve" smooth="yes"/>
      <point x="509" y="1417" type="line"/>
      <point x="512" y="1457"/>
      <point x="470" y="1480"/>
      <point x="431" y="1480" type="curve" smooth="yes"/>
      <point x="392" y="1480"/>
      <point x="349" y="1458"/>
      <point x="352" y="1417" type="curve" smooth="yes"/>
      <point x="352" y="1418"/>
      <point x="384" y="999"/>
      <point x="379" y="1062" type="curve" smooth="yes"/>
      <point x="383" y="1014"/>
      <point x="404" y="1000"/>
    </contour>
  </outline>
</glyph>
<glyph name="numbersign" format="1">
  <advance width="1167"/>
  <unicode hex="0023"/>
  <outline>
    <contour>
      <point x="285" y="-51" type="curve" smooth="yes"/>
      <point x="314" y="-51"/>
      <point x="347" y="-32"/>
      <point x="353" y="9" type="curve" smooth="yes"/>
      <point x="420" y="460" type="line"/>
      <point x="686" y="460" type="line"/>
      <point x="689" y="475"/>
      <point x="623" y="20"/>
      <point x="623" y="20" type="curve" smooth="yes"/>
      <point x="616" y="-32"/>
      <point x="654" y="-51"/>
      <point x="689" y="-51" type="curve" smooth="yes"/>
      <point x="719" y="-51"/>
      <point x="750" y="-32"/>
      <point x="757" y="9" type="curve" smooth="yes"/>
      <point x="823" y="460" type="line"/>
      <point x="973" y="460" type="line" smooth="yes"/>
      <point x="1017" y="460"/>
      <point x="1039" y="491"/>
      <point x="1039" y="523" type="curve" smooth="yes"/>
      <point x="1039" y="556"/>
      <point x="1016" y="589"/>
      <point x="973" y="589" type="curve" smooth="yes"/>
      <point x="843" y="589" type="line"/>
      <point x="883" y="863" type="line"/>
      <point x="1030" y="863" type="line" smooth="yes"/>
      <point x="1074" y="863"/>
      <point x="1095" y="895"/>
      <point x="1095" y="928" type="curve" smooth="yes"/>
      <point x="1095" y="960"/>
      <point x="1073" y="993"/>
      <point x="1030" y="993" type="curve" smooth="yes"/>
      <point x="902" y="993" type="line"/>
      <point x="900" y="979"/>
      <point x="962" y="1396"/>
      <point x="962" y="1395" type="curve"/>
      <point x="968" y="1438"/>
      <point x="930" y="1460"/>
      <point x="895" y="1460" type="curve" smooth="yes"/>
      <point x="863" y="1460"/>
      <point x="831" y="1440"/>
      <point x="824" y="1399" type="curve" smooth="yes"/>
      <point x="764" y="993" type="line"/>
      <point x="498" y="993" type="line"/>
      <point x="496" y="979"/>
      <point x="557" y="1396"/>
      <point x="557" y="1395" type="curve"/>
      <point x="565" y="1440"/>
      <point x="526" y="1460"/>
      <point x="491" y="1460" type="curve" smooth="yes"/>
      <point x="459" y="1460"/>
      <point x="426" y="1440"/>
      <point x="419" y="1399" type="curve" smooth="yes"/>
      <point x="360" y="993" type="line"/>
      <point x="191" y="993" type="line" smooth="yes"/>
      <point x="148" y="993"/>
      <point x="127" y="961"/>
      <point x="127" y="929" type="curve" smooth="yes"/>
      <point x="127" y="896"/>
      <point x="149" y="863"/>
      <point x="191" y="863" type="curve" smooth="yes"/>
      <point x="341" y="863" type="line"/>
      <point x="301" y="589" type="line"/>
      <point x="135" y="589" type="line" smooth="yes"/>
      <point x="92" y="589"/>
      <point x="71" y="557"/>
      <point x="71" y="524" type="curve" smooth="yes"/>
      <point x="71" y="492"/>
      <point x="93" y="460"/>
      <point x="135" y="460" type="curve" smooth="yes"/>
      <point x="283" y="460" type="line"/>
      <point x="286" y="475"/>
      <point x="219" y="20"/>
      <point x="219" y="20" type="curve" smooth="yes"/>
      <point x="211" y="-32"/>
      <point x="250" y="-51"/>
    </contour>
    <contour>
      <point x="439" y="589" type="line"/>
      <point x="479" y="863" type="line"/>
      <point x="745" y="863" type="line"/>
      <point x="705" y="589" type="line"/>
    </contour>
  </outline>
</glyph>
<glyph name="ampersand" format="1">
  <advance width="1512"/>
  <unicode hex="0026"/>
  <outline>
    <contour>
      <point x="657" y="-29" type="curve" smooth="yes"/>
      <point x="848" y="-29"/>
      <point x="990" y="49"/>
      <point x="1112" y="187" type="curve"/>
      <point x="1261" y="22" type="line" smooth="yes"/>
      <point x="1279" y="1"/>
      <point x="1300" y="-8"/>
      <point x="1320" y="-8" type="curve" smooth="yes"/>
      <point x="1363" y="-8"/>
      <point x="1407" y="35"/>
      <point x="1407" y="80" type="curve" smooth="yes"/>
      <point x="1407" y="100"/>
      <point x="1398" y="113"/>
      <point x="1381" y="133" type="curve"/>
      <point x="1222" y="306" type="line"/>
      <point x="1345" y="514"/>
      <point x="1386" y="753"/>
      <point x="1386" y="853" type="curve" smooth="yes"/>
      <point x="1386" y="901"/>
      <point x="1347" y="926"/>
      <point x="1308" y="926" type="curve" smooth="yes"/>
      <point x="1272" y="926"/>
      <point x="1239" y="905"/>
      <point x="1235" y="859" type="curve"/>
      <point x="1232" y="711"/>
      <point x="1176" y="544"/>
      <point x="1115" y="413" type="curve"/>
      <point x="705" y="850" type="line"/>
      <point x="842" y="952"/>
      <point x="978" y="1067"/>
      <point x="978" y="1240" type="curve" smooth="yes"/>
      <point x="978" y="1427"/>
      <point x="865" y="1508"/>
      <point x="654" y="1509" type="curve" smooth="yes"/>
      <point x="448" y="1510"/>
      <point x="275" y="1421"/>
      <point x="275" y="1233" type="curve" smooth="yes"/>
      <point x="275" y="1089"/>
      <point x="379" y="969"/>
      <point x="474" y="865" type="curve"/>
      <point x="289" y="765"/>
      <point x="105" y="634"/>
      <point x="105" y="406" type="curve" smooth="yes"/>
      <point x="105" y="131"/>
      <point x="325" y="-29"/>
    </contour>
    <contour>
      <point x="647" y="108" type="curve" smooth="yes"/>
      <point x="457" y="108"/>
      <point x="280" y="227"/>
      <point x="280" y="431" type="curve" smooth="yes"/>
      <point x="280" y="553"/>
      <point x="401" y="666"/>
      <point x="576" y="760" type="curve"/>
      <point x="1019" y="286" type="line"/>
      <point x="912" y="175"/>
      <point x="803" y="108"/>
    </contour>
    <contour>
      <point x="605" y="947" type="curve"/>
      <point x="535" y="1021"/>
      <point x="448" y="1131"/>
      <point x="448" y="1230" type="curve" smooth="yes"/>
      <point x="448" y="1334"/>
      <point x="536" y="1374"/>
      <point x="630" y="1374" type="curve" smooth="yes"/>
      <point x="718" y="1374"/>
      <point x="806" y="1328"/>
      <point x="806" y="1230" type="curve" smooth="yes"/>
      <point x="806" y="1110"/>
      <point x="691" y="1027"/>
    </contour>
  </outline>
</glyph>
<glyph name="quotesingle" format="1">
  <advance width="583"/>
  <unicode hex="0027"/>
  <outline>
    <contour>
      <point x="290" y="995" type="curve" smooth="yes"/>
      <point x="316" y="995"/>
      <point x="342" y="1000"/>
      <point x="345" y="1043" type="curve" smooth="yes"/>
      <point x="373" y="1415" type="line"/>
      <point x="373" y="1458"/>
      <point x="333" y="1480"/>
      <point x="292" y="1480" type="curve" smooth="yes"/>
      <point x="250" y="1480"/>
      <point x="210" y="1457"/>
      <point x="210" y="1415" type="curve" smooth="yes"/>
      <point x="210" y="1415"/>
      <point x="239" y="1029"/>
      <point x="238" y="1043" type="curve"/>
      <point x="241" y="1000"/>
      <point x="266" y="995"/>
    </contour>
  </outline>
</glyph>
<glyph name="parenleft" format="1">
  <advance width="590"/>
  <unicode hex="0028"/>
  <outline>
    <contour>
      <point x="423" y="-219" type="curve" smooth="yes"/>
      <point x="454" y="-219"/>
      <point x="484" y="-196"/>
      <point x="484" y="-162" type="curve" smooth="yes"/>
      <point x="484" y="-151"/>
      <point x="482" y="-142"/>
      <point x="479" y="-136" type="curve" smooth="yes"/>
      <point x="383" y="125"/>
      <point x="326" y="386"/>
      <point x="326" y="635" type="curve" smooth="yes"/>
      <point x="326" y="884"/>
      <point x="384" y="1148"/>
      <point x="480" y="1409" type="curve" smooth="yes"/>
      <point x="484" y="1417"/>
      <point x="485" y="1426"/>
      <point x="485" y="1433" type="curve" smooth="yes"/>
      <point x="485" y="1469"/>
      <point x="454" y="1493"/>
      <point x="423" y="1493" type="curve" smooth="yes"/>
      <point x="400" y="1493"/>
      <point x="376" y="1480"/>
      <point x="363" y="1450" type="curve" smooth="yes"/>
      <point x="254" y="1187"/>
      <point x="155" y="912"/>
      <point x="155" y="634" type="curve" smooth="yes"/>
      <point x="155" y="356"/>
      <point x="253" y="85"/>
      <point x="363" y="-174" type="curve" smooth="yes"/>
      <point x="377" y="-206"/>
      <point x="400" y="-219"/>
    </contour>
  </outline>
</glyph>
<glyph name="comma" format="1">
  <advance width="578"/>
  <unicode hex="002C"/>
  <outline>
    <contour>
      <point x="159" y="-343" type="curve" smooth="yes"/>
      <point x="194" y="-343" type="line"/>
      <point x="197" y="-343" type="line" smooth="yes"/>
      <point x="224" y="-343"/>
      <point x="239" y="-331"/>
      <point x="250" y="-300" type="curve" smooth="yes"/>
      <point x="409" y="167" type="line" smooth="yes"/>
      <point x="410" y="171"/>
      <point x="412" y="178"/>
      <point x="412" y="185" type="curve" smooth="yes"/>
      <point x="412" y="201"/>
      <point x="404" y="221"/>
      <point x="375" y="223" type="curve"/>
      <point x="292" y="223" type="line"/>
      <point x="260" y="222"/>
      <point x="227" y="214"/>
      <point x="219" y="167" type="curve" smooth="yes"/>
      <point x="135" y="-300" type="line" smooth="yes"/>
      <point x="134" y="-303"/>
      <point x="134" y="-307"/>
      <point x="134" y="-312" type="curve" smooth="yes"/>
      <point x="134" y="-325"/>
      <point x="138" y="-342"/>
    </contour>
  </outline>
</glyph>
<glyph name="hyphen" format="1">
  <advance width="698"/>
  <unicode hex="002D"/>
  <outline>
    <contour>
      <point x="113" y="468" type="curve" smooth="yes"/>
      <point x="586" y="468" type="line" smooth="yes"/>
      <point x="630" y="468"/>
      <point x="658" y="490"/>
      <point x="658" y="526" type="curve" smooth="yes"/>
      <point x="658" y="563"/>
      <point x="630" y="587"/>
      <point x="586" y="587" type="curve" smooth="yes"/>
      <point x="113" y="587" type="line" smooth="yes"/>
      <point x="69" y="587"/>
      <point x="40" y="563"/>
      <point x="40" y="526" type="curve" smooth="yes"/>
      <point x="40" y="490"/>
      <point x="69" y="468"/>
    </contour>
  </outline>
</glyph>
<glyph name="two" format="1">
  <advance width="1157"/>
  <unicode hex="0032"/>
  <outline>
    <contour>
      <point x="263" y="0" type="curve" smooth="yes"/>
      <point x="943" y="0" type="line" smooth="yes"/>
      <point x="994" y="0"/>
      <point x="1019" y="32"/>
      <point x="1019" y="66" type="curve" smooth="yes"/>
      <point x="1019" y="99"/>
      <point x="993" y="131"/>
      <point x="943" y="131" type="curve" smooth="yes"/>
      <point x="324" y="131" type="line"/>
      <point x="793" y="599" type="line"/>
      <point x="964" y="761"/>
      <point x="1029" y="886"/>
      <point x="1029" y="1039" type="curve" smooth="yes"/>
      <point x="1029" y="1258"/>
      <point x="847" y="1438"/>
      <point x="603" y="1438" type="curve" smooth="yes"/>
      <point x="401" y="1438"/>
      <point x="299" y="1380"/>
      <point x="194" y="1315" type="curve" smooth="yes"/>
      <point x="116" y="1267"/>
      <point x="188" y="1159"/>
      <point x="257" y="1196" type="curve" smooth="yes"/>
      <point x="334" y="1237"/>
      <point x="393" y="1300"/>
      <point x="592" y="1300" type="curve" smooth="yes"/>
      <point x="743" y="1300"/>
      <point x="869" y="1192"/>
      <point x="869" y="1021" type="curve" smooth="yes"/>
      <point x="869" y="918"/>
      <point x="815" y="827"/>
      <point x="701" y="711" type="curve" smooth="yes"/>
      <point x="180" y="180" type="line" smooth="yes"/>
      <point x="88" y="88"/>
      <point x="149" y="0"/>
    </contour>
  </outline>
</glyph>
<glyph name="three" format="1">
  <advance width="1158"/>
  <unicode hex="0033"/>
  <outline>
    <contour>
      <point x="548" y="-22" type="curve" smooth="yes"/>
      <point x="790" y="-22"/>
      <point x="1030" y="93"/>
      <point x="1030" y="371" type="curve" smooth="yes"/>
      <point x="1030" y="560"/>
      <point x="911" y="701"/>
      <point x="742" y="737" type="curve"/>
      <point x="881" y="775"/>
      <point x="994" y="884"/>
      <point x="994" y="1052" type="curve" smooth="yes"/>
      <point x="994" y="1318"/>
      <point x="789" y="1436"/>
      <point x="537" y="1436" type="curve" smooth="yes"/>
      <point x="387" y="1436"/>
      <point x="223" y="1374"/>
      <point x="185" y="1355" type="curve" smooth="yes"/>
      <point x="115" y="1318"/>
      <point x="173" y="1195"/>
      <point x="240" y="1225" type="curve" smooth="yes"/>
      <point x="278" y="1240"/>
      <point x="376" y="1297"/>
      <point x="542" y="1297" type="curve" smooth="yes"/>
      <point x="692" y="1297"/>
      <point x="819" y="1211"/>
      <point x="819" y="1054" type="curve" smooth="yes"/>
      <point x="819" y="881"/>
      <point x="691" y="795"/>
      <point x="501" y="795" type="curve" smooth="yes"/>
      <point x="442" y="795" type="line" smooth="yes"/>
      <point x="398" y="795"/>
      <point x="375" y="763"/>
      <point x="375" y="728" type="curve" smooth="yes"/>
      <point x="375" y="693"/>
      <point x="398" y="665"/>
      <point x="442" y="665" type="curve" smooth="yes"/>
      <point x="509" y="665" type="line" smooth="yes"/>
      <point x="708" y="665"/>
      <point x="858" y="553"/>
      <point x="858" y="366" type="curve" smooth="yes"/>
      <point x="858" y="209"/>
      <point x="723" y="117"/>
      <point x="546" y="117" type="curve" smooth="yes"/>
      <point x="429" y="117"/>
      <point x="331" y="154"/>
      <point x="267" y="184" type="curve"/>
      <point x="189" y="213"/>
      <point x="129" y="100"/>
      <point x="229" y="50" type="curve" smooth="yes"/>
      <point x="315" y="3"/>
      <point x="442" y="-22"/>
    </contour>
  </outline>
</glyph>
<glyph name="four" format="1">
  <advance width="1158"/>
  <unicode hex="0034"/>
  <outline>
    <contour>
      <point x="834" y="0" type="curve" smooth="yes"/>
      <point x="875" y="0"/>
      <point x="918" y="27"/>
      <point x="918" y="79" type="curve" smooth="yes"/>
      <point x="918" y="317" type="line"/>
      <point x="1074" y="317" type="line" smooth="yes"/>
      <point x="1117" y="317"/>
      <point x="1139" y="349"/>
      <point x="1139" y="382" type="curve" smooth="yes"/>
      <point x="1139" y="414"/>
      <point x="1117" y="447"/>
      <point x="1074" y="447" type="curve" smooth="yes"/>
      <point x="919" y="447" type="line"/>
      <point x="919" y="1305" type="line" smooth="yes"/>
      <point x="919" y="1389"/>
      <point x="861" y="1426"/>
      <point x="797" y="1426" type="curve" smooth="yes"/>
      <point x="742" y="1426"/>
      <point x="693" y="1401"/>
      <point x="658" y="1347" type="curve" smooth="yes"/>
      <point x="95" y="474" type="line" smooth="yes"/>
      <point x="46" y="399"/>
      <point x="89" y="317"/>
      <point x="171" y="317" type="curve" smooth="yes"/>
      <point x="749" y="317" type="line"/>
      <point x="749" y="79" type="line" smooth="yes"/>
      <point x="749" y="27"/>
      <point x="793" y="0"/>
    </contour>
    <contour>
      <point x="242" y="447" type="line"/>
      <point x="749" y="1247" type="line"/>
      <point x="749" y="447" type="line"/>
    </contour>
  </outline>
</glyph>
<glyph name="five" format="1">
  <advance width="1150"/>
  <unicode hex="0035"/>
  <outline>
    <contour>
      <point x="601" y="-22" type="curve" smooth="yes"/>
      <point x="887" y="-22"/>
      <point x="1072" y="158"/>
      <point x="1072" y="435" type="curve" smooth="yes"/>
      <point x="1072" y="696"/>
      <point x="914" y="891"/>
      <point x="637" y="891" type="curve" smooth="yes"/>
      <point x="416" y="891"/>
      <point x="314" y="754"/>
      <point x="314" y="754" type="curve"/>
      <point x="316" y="1283" type="line"/>
      <point x="921" y="1283" type="line" smooth="yes"/>
      <point x="966" y="1283"/>
      <point x="986" y="1310"/>
      <point x="986" y="1344" type="curve" smooth="yes"/>
      <point x="986" y="1377"/>
      <point x="966" y="1405"/>
      <point x="921" y="1405" type="curve" smooth="yes"/>
      <point x="262" y="1405" type="line" smooth="yes"/>
      <point x="211" y="1405"/>
      <point x="187" y="1375"/>
      <point x="187" y="1334" type="curve" smooth="yes"/>
      <point x="187" y="659" type="line" smooth="yes"/>
      <point x="187" y="627"/>
      <point x="239" y="602"/>
      <point x="280" y="602" type="curve" smooth="yes"/>
      <point x="298" y="602"/>
      <point x="314" y="607"/>
      <point x="322" y="619" type="curve" smooth="yes"/>
      <point x="382" y="710"/>
      <point x="515" y="766"/>
      <point x="624" y="766" type="curve" smooth="yes"/>
      <point x="803" y="766"/>
      <point x="918" y="629"/>
      <point x="918" y="439" type="curve" smooth="yes"/>
      <point x="918" y="237"/>
      <point x="814" y="107"/>
      <point x="597" y="107" type="curve" smooth="yes"/>
      <point x="454" y="107"/>
      <point x="346" y="168"/>
      <point x="272" y="239" type="curve" smooth="yes"/>
      <point x="263" y="248"/>
      <point x="252" y="252"/>
      <point x="241" y="252" type="curve" smooth="yes"/>
      <point x="206" y="252"/>
      <point x="168" y="216"/>
      <point x="168" y="180" type="curve" smooth="yes"/>
      <point x="168" y="167"/>
      <point x="173" y="154"/>
      <point x="185" y="143" type="curve" smooth="yes"/>
      <point x="313" y="27"/>
      <point x="435" y="-22"/>
    </contour>
  </outline>
</glyph>
<glyph name="six" format="1">
  <advance width="1150"/>
  <unicode hex="0036"/>
  <outline>
    <contour>
      <point x="1059" y="448" type="curve" smooth="yes"/>
      <point x="1059" y="713"/>
      <point x="899" y="902"/>
      <point x="619" y="902" type="curve" smooth="yes"/>
      <point x="417" y="902"/>
      <point x="284" y="766"/>
      <point x="260" y="656" type="curve"/>
      <point x="260" y="1024"/>
      <point x="315" y="1301"/>
      <point x="653" y="1301" type="curve" smooth="yes"/>
      <point x="726" y="1301"/>
      <point x="814" y="1283"/>
      <point x="904" y="1239" type="curve" smooth="yes"/>
      <point x="913" y="1234"/>
      <point x="922" y="1232"/>
      <point x="930" y="1232" type="curve" smooth="yes"/>
      <point x="965" y="1232"/>
      <point x="991" y="1269"/>
      <point x="991" y="1303" type="curve" smooth="yes"/>
      <point x="991" y="1324"/>
      <point x="982" y="1344"/>
      <point x="960" y="1355" type="curve" smooth="yes"/>
      <point x="873" y="1399"/>
      <point x="767" y="1430"/>
      <point x="656" y="1430" type="curve" smooth="yes"/>
      <point x="144" y="1430"/>
      <point x="95" y="934"/>
      <point x="95" y="620" type="curve" smooth="yes"/>
      <point x="95" y="296"/>
      <point x="199" y="-22"/>
      <point x="598" y="-22" type="curve" smooth="yes"/>
      <point x="885" y="-22"/>
      <point x="1059" y="183"/>
    </contour>
    <contour>
      <point x="588" y="105" type="curve" smooth="yes"/>
      <point x="371" y="105"/>
      <point x="276" y="277"/>
      <point x="276" y="447" type="curve" smooth="yes"/>
      <point x="276" y="645"/>
      <point x="393" y="786"/>
      <point x="609" y="787" type="curve" smooth="yes"/>
      <point x="813" y="787"/>
      <point x="902" y="627"/>
      <point x="902" y="448" type="curve" smooth="yes"/>
      <point x="902" y="257"/>
      <point x="798" y="105"/>
    </contour>
  </outline>
</glyph>
<glyph name="eight" format="1">
  <advance width="1158"/>
  <unicode hex="0038"/>
  <outline>
    <contour>
      <point x="579" y="-22" type="curve" smooth="yes"/>
      <point x="841" y="-22"/>
      <point x="1057" y="112"/>
      <point x="1057" y="376" type="curve" smooth="yes"/>
      <point x="1057" y="556"/>
      <point x="963" y="681"/>
      <point x="771" y="734" type="curve"/>
      <point x="946" y="777"/>
      <point x="1035" y="895"/>
      <point x="1035" y="1063" type="curve" smooth="yes"/>
      <point x="1035" y="1315"/>
      <point x="825" y="1436"/>
      <point x="579" y="1436" type="curve" smooth="yes"/>
      <point x="336" y="1436"/>
      <point x="124" y="1315"/>
      <point x="124" y="1063" type="curve" smooth="yes"/>
      <point x="124" y="907"/>
      <point x="201" y="777"/>
      <point x="389" y="734" type="curve"/>
      <point x="201" y="696"/>
      <point x="102" y="550"/>
      <point x="102" y="376" type="curve" smooth="yes"/>
      <point x="102" y="112"/>
      <point x="317" y="-22"/>
    </contour>
    <contour>
      <point x="579" y="109" type="curve" smooth="yes"/>
      <point x="414" y="109"/>
      <point x="273" y="193"/>
      <point x="273" y="374" type="curve" smooth="yes"/>
      <point x="273" y="561"/>
      <point x="412" y="656"/>
      <point x="579" y="656" type="curve" smooth="yes"/>
      <point x="746" y="656"/>
      <point x="885" y="561"/>
      <point x="885" y="374" type="curve" smooth="yes"/>
      <point x="885" y="193"/>
      <point x="746" y="109"/>
    </contour>
    <contour>
      <point x="579" y="816" type="curve" smooth="yes"/>
      <point x="402" y="816"/>
      <point x="286" y="900"/>
      <point x="286" y="1064" type="curve" smooth="yes"/>
      <point x="286" y="1240"/>
      <point x="430" y="1311"/>
      <point x="579" y="1311" type="curve" smooth="yes"/>
      <point x="730" y="1311"/>
      <point x="873" y="1240"/>
      <point x="873" y="1064" type="curve" smooth="yes"/>
      <point x="873" y="900"/>
      <point x="758" y="816"/>
    </contour>
  </outline>
</glyph>
<glyph name="nine" format="1">
  <advance width="1158"/>
  <unicode hex="0039"/>
  <outline>
    <contour>
      <point x="499" y="-22" type="curve" smooth="yes"/>
      <point x="1010" y="-22"/>
      <point x="1067" y="461"/>
      <point x="1067" y="792" type="curve" smooth="yes"/>
      <point x="1067" y="1120"/>
      <point x="958" y="1436"/>
      <point x="557" y="1436" type="curve" smooth="yes"/>
      <point x="267" y="1436"/>
      <point x="90" y="1232"/>
      <point x="90" y="965" type="curve" smooth="yes"/>
      <point x="90" y="701"/>
      <point x="255" y="513"/>
      <point x="533" y="512" type="curve" smooth="yes"/>
      <point x="729" y="510"/>
      <point x="863" y="638"/>
      <point x="889" y="745" type="curve"/>
      <point x="889" y="387"/>
      <point x="835" y="117"/>
      <point x="502" y="117" type="curve" smooth="yes"/>
      <point x="429" y="117"/>
      <point x="341" y="135"/>
      <point x="251" y="178" type="curve" smooth="yes"/>
      <point x="177" y="214"/>
      <point x="124" y="89"/>
      <point x="194" y="53" type="curve" smooth="yes"/>
      <point x="281" y="9"/>
      <point x="388" y="-22"/>
    </contour>
    <contour>
      <point x="546" y="635" type="curve" smooth="yes"/>
      <point x="346" y="635"/>
      <point x="259" y="790"/>
      <point x="259" y="966" type="curve" smooth="yes"/>
      <point x="259" y="1156"/>
      <point x="362" y="1300"/>
      <point x="567" y="1300" type="curve" smooth="yes"/>
      <point x="777" y="1300"/>
      <point x="874" y="1136"/>
      <point x="874" y="968" type="curve" smooth="yes"/>
      <point x="874" y="772"/>
      <point x="758" y="635"/>
    </contour>
  </outline>
</glyph>
<glyph name="semicolon" format="1">
  <advance width="583"/>
  <unicode hex="003B"/>
  <outline>
    <component base="comma" xOffset="6" yOffset="118"/>
    <contour>
      <point x="316" y="827" type="curve" smooth="yes"/>
      <point x="385" y="827"/>
      <point x="423" y="874"/>
      <point x="423" y="924" type="curve" smooth="yes"/>
      <point x="423" y="973"/>
      <point x="385" y="1019"/>
      <point x="316" y="1019" type="curve" smooth="yes"/>
      <point x="248" y="1019"/>
      <point x="210" y="973"/>
      <point x="210" y="924" type="curve" smooth="yes"/>
      <point x="210" y="874"/>
      <point x="248" y="827"/>
    </contour>
  </outline>
</glyph>
<glyph name="less" format="1">
  <advance width="1341"/>
  <unicode hex="003C"/>
  <outline>
    <contour>
      <point x="1097" y="32" type="line" smooth="yes"/>
      <point x="1156" y="6"/>
      <point x="1195" y="113"/>
      <point x="1144" y="136" type="curve" smooth="yes"/>
      <point x="337" y="495" type="line"/>
      <point x="1141" y="834" type="line" smooth="yes"/>
      <point x="1211" y="864"/>
      <point x="1151" y="962"/>
      <point x="1093" y="937" type="curve" smooth="yes"/>
      <point x="204" y="558" type="line" smooth="yes"/>
      <point x="139" y="530"/>
      <point x="146" y="456"/>
      <point x="203" y="430" type="curve" smooth="yes"/>
    </contour>
  </outline>
</glyph>
<glyph name="greater" format="1">
  <advance width="1341"/>
  <unicode hex="003E"/>
  <outline>
    <contour>
      <point x="233" y="32" type="curve" smooth="yes"/>
      <point x="1127" y="430" type="line" smooth="yes"/>
      <point x="1184" y="456"/>
      <point x="1192" y="530"/>
      <point x="1127" y="558" type="curve" smooth="yes"/>
      <point x="237" y="937" type="line" smooth="yes"/>
      <point x="180" y="962"/>
      <point x="120" y="864"/>
      <point x="190" y="834" type="curve" smooth="yes"/>
      <point x="994" y="495" type="line"/>
      <point x="187" y="136" type="line" smooth="yes"/>
      <point x="136" y="113"/>
      <point x="175" y="6"/>
    </contour>
  </outline>
</glyph>
<glyph name="A" format="1">
  <advance width="1405"/>
  <unicode hex="0041"/>
  <outline>
    <contour>
      <point x="1266" y="19" type="move" name="ogonek"/>
    </contour>
    <contour>
      <point x="1010" y="502" type="line"/>
      <point x="392" y="502" type="line"/>
      <point x="701" y="1279" type="line"/>
    </contour>
    <contour>
      <point x="1189" y="50" type="line" smooth="yes"/>
      <point x="1204" y="11"/>
      <point x="1235" y="-5"/>
      <point x="1265" y="-5" type="curve" smooth="yes"/>
      <point x="1305" y="-5"/>
      <point x="1343" y="25"/>
      <point x="1343" y="68" type="curve" smooth="yes"/>
      <point x="1343" y="78"/>
      <point x="1341" y="89"/>
      <point x="1336" y="101" type="curve" smooth="yes"/>
      <point x="850" y="1294" type="line" smooth="yes"/>
      <point x="806" y="1405"/>
      <point x="764" y="1425"/>
      <point x="701" y="1425" type="curve" smooth="yes"/>
      <point x="637" y="1425"/>
      <point x="596" y="1405"/>
      <point x="552" y="1294" type="curve" smooth="yes"/>
      <point x="66" y="101" type="line" smooth="yes"/>
      <point x="61" y="89"/>
      <point x="59" y="78"/>
      <point x="59" y="68" type="curve" smooth="yes"/>
      <point x="59" y="25"/>
      <point x="97" y="-5"/>
      <point x="137" y="-5" type="curve" smooth="yes"/>
      <point x="167" y="-5"/>
      <point x="198" y="11"/>
      <point x="213" y="50" type="curve" smooth="yes"/>
      <point x="345" y="384" type="line"/>
      <point x="1057" y="384" type="line"/>
    </contour>
  </outline>
</glyph>
<glyph name="D" format="1">
  <advance width="1498"/>
  <unicode hex="0044"/>
  <outline>
    <contour>
      <point x="777" y="1438" type="move" name="top"/>
    </contour>
    <contour>
      <point x="299" y="718" type="move" name="mid"/>
    </contour>
    <contour>
      <point x="265" y="4" type="curve" smooth="yes"/>
      <point x="609" y="4" type="line" smooth="yes"/>
      <point x="1091" y="4"/>
      <point x="1369" y="248"/>
      <point x="1369" y="714" type="curve" smooth="yes"/>
      <point x="1369" y="1182"/>
      <point x="1100" y="1430"/>
      <point x="605" y="1430" type="curve" smooth="yes"/>
      <point x="265" y="1430" type="line" smooth="yes"/>
      <point x="217" y="1430"/>
      <point x="178" y="1391"/>
      <point x="178" y="1345" type="curve" smooth="yes"/>
      <point x="178" y="88" type="line" smooth="yes"/>
      <point x="178" y="42"/>
      <point x="217" y="4"/>
    </contour>
    <contour>
      <point x="353" y="142" type="line"/>
      <point x="353" y="1292" type="line"/>
      <point x="579" y="1292" type="line" smooth="yes"/>
      <point x="990" y="1292"/>
      <point x="1187" y="1136"/>
      <point x="1187" y="716" type="curve" smooth="yes"/>
      <point x="1187" y="343"/>
      <point x="1040" y="142"/>
      <point x="615" y="142" type="curve" smooth="yes"/>
    </contour>
  </outline>
</glyph>
<glyph name="F" format="1">
  <advance width="1141"/>
  <unicode hex="0046"/>
  <outline>
    <contour>
      <point x="266" y="0" type="curve" smooth="yes"/>
      <point x="309" y="0"/>
      <point x="353" y="26"/>
      <point x="353" y="82" type="curve" smooth="yes"/>
      <point x="353" y="671" type="line"/>
      <point x="940" y="671" type="line" smooth="yes"/>
      <point x="988" y="671"/>
      <point x="1013" y="705"/>
      <point x="1013" y="741" type="curve" smooth="yes"/>
      <point x="1013" y="777"/>
      <point x="988" y="808"/>
      <point x="940" y="808" type="curve" smooth="yes"/>
      <point x="353" y="808" type="line"/>
      <point x="353" y="1287" type="line"/>
      <point x="966" y="1287" type="line" smooth="yes"/>
      <point x="1014" y="1287"/>
      <point x="1038" y="1320"/>
      <point x="1038" y="1357" type="curve" smooth="yes"/>
      <point x="1038" y="1392"/>
      <point x="1014" y="1426"/>
      <point x="966" y="1426" type="curve" smooth="yes"/>
      <point x="260" y="1426" type="line" smooth="yes"/>
      <point x="216" y="1426"/>
      <point x="178" y="1392"/>
      <point x="178" y="1342" type="curve" smooth="yes"/>
      <point x="178" y="82" type="line" smooth="yes"/>
      <point x="178" y="27"/>
      <point x="221" y="0"/>
    </contour>
  </outline>
</glyph>
<glyph name="G" format="1">
  <advance width="1440"/>
  <unicode hex="0047"/>
  <outline>
    <contour>
      <point x="871" y="1424" type="move" name="top"/>
    </contour>
    <contour>
      <point x="835" y="0" type="move" name="bot"/>
    </contour>
    <contour>
      <point x="792" y="-22" type="curve" smooth="yes"/>
      <point x="963" y="-22"/>
      <point x="1137" y="10"/>
      <point x="1257" y="56" type="curve" smooth="yes"/>
      <point x="1288" y="69"/>
      <point x="1316" y="105"/>
      <point x="1316" y="147" type="curve" smooth="yes"/>
      <point x="1316" y="665" type="line" smooth="yes"/>
      <point x="1316" y="707"/>
      <point x="1290" y="736"/>
      <point x="1248" y="736" type="curve" smooth="yes"/>
      <point x="863" y="736" type="line" smooth="yes"/>
      <point x="820" y="736"/>
      <point x="799" y="701"/>
      <point x="799" y="672" type="curve" smooth="yes"/>
      <point x="799" y="644"/>
      <point x="822" y="611"/>
      <point x="863" y="611" type="curve" smooth="yes"/>
      <point x="1156" y="611" type="line"/>
      <point x="1156" y="157" type="line"/>
      <point x="1058" y="129"/>
      <point x="919" y="107"/>
      <point x="812" y="107" type="curve" smooth="yes"/>
      <point x="445" y="107"/>
      <point x="303" y="379"/>
      <point x="303" y="704" type="curve" smooth="yes"/>
      <point x="303" y="1055"/>
      <point x="481" y="1301"/>
      <point x="838" y="1301" type="curve" smooth="yes"/>
      <point x="954" y="1301"/>
      <point x="1075" y="1273"/>
      <point x="1190" y="1237" type="curve"/>
      <point x="1192" y="1237"/>
      <point x="1206" y="1236"/>
      <point x="1204" y="1236" type="curve" smooth="yes"/>
      <point x="1239" y="1236"/>
      <point x="1261" y="1270"/>
      <point x="1261" y="1303" type="curve" smooth="yes"/>
      <point x="1261" y="1325"/>
      <point x="1252" y="1347"/>
      <point x="1227" y="1357" type="curve" smooth="yes"/>
      <point x="1112" y="1405"/>
      <point x="974" y="1430"/>
      <point x="832" y="1430" type="curve" smooth="yes"/>
      <point x="361" y="1430"/>
      <point x="131" y="1084"/>
      <point x="131" y="709" type="curve" smooth="yes"/>
      <point x="131" y="216"/>
      <point x="421" y="-22"/>
    </contour>
  </outline>
</glyph>
<glyph name="H" format="1">
  <advance width="1462"/>
  <unicode hex="0048"/>
  <outline>
    <contour>
      <point x="761" y="1438" type="move" name="top"/>
    </contour>
    <contour>
      <point x="264" y="0" type="curve" smooth="yes"/>
      <point x="309" y="0"/>
      <point x="353" y="26"/>
      <point x="353" y="82" type="curve" smooth="yes"/>
      <point x="353" y="670" type="line"/>
      <point x="1109" y="670" type="line"/>
      <point x="1109" y="82" type="line" smooth="yes"/>
      <point x="1109" y="27"/>
      <point x="1152" y="0"/>
      <point x="1195" y="0" type="curve" smooth="yes"/>
      <point x="1239" y="0"/>
      <point x="1283" y="26"/>
      <point x="1283" y="82" type="curve" smooth="yes"/>
      <point x="1283" y="1343" type="line" smooth="yes"/>
      <point x="1283" y="1398"/>
      <point x="1240" y="1426"/>
      <point x="1196" y="1426" type="curve" smooth="yes"/>
      <point x="1152" y="1426"/>
      <point x="1109" y="1397"/>
      <point x="1109" y="1343" type="curve" smooth="yes"/>
      <point x="1109" y="809" type="line"/>
      <point x="353" y="809" type="line"/>
      <point x="353" y="1343" type="line" smooth="yes"/>
      <point x="353" y="1398"/>
      <point x="310" y="1426"/>
      <point x="266" y="1426" type="curve" smooth="yes"/>
      <point x="222" y="1426"/>
      <point x="178" y="1397"/>
      <point x="178" y="1343" type="curve" smooth="yes"/>
      <point x="178" y="82" type="line" smooth="yes"/>
      <point x="178" y="27"/>
      <point x="221" y="0"/>
    </contour>
  </outline>
</glyph>
<glyph name="L" format="1">
  <advance width="1089"/>
  <unicode hex="004C"/>
  <outline>
    <contour>
      <point x="326" y="1456" type="move" name="top"/>
    </contour>
    <contour>
      <point x="489" y="982" type="move" name="caron.alt"/>
    </contour>
    <contour>
      <point x="654" y="0" type="move" name="bot"/>
    </contour>
    <contour>
      <point x="259" y="691" type="move" name="mid"/>
    </contour>
    <contour>
      <point x="261" y="0" type="curve" smooth="yes"/>
      <point x="1000" y="0" type="line" smooth="yes"/>
      <point x="1046" y="0"/>
      <point x="1069" y="30"/>
      <point x="1069" y="64" type="curve" smooth="yes"/>
      <point x="1069" y="98"/>
      <point x="1048" y="128"/>
      <point x="1000" y="128" type="curve" smooth="yes"/>
      <point x="341" y="128" type="line"/>
      <point x="341" y="1348" type="line" smooth="yes"/>
      <point x="341" y="1399"/>
      <point x="301" y="1424"/>
      <point x="261" y="1424" type="curve" smooth="yes"/>
      <point x="220" y="1424"/>
      <point x="179" y="1398"/>
      <point x="179" y="1348" type="curve" smooth="yes"/>
      <point x="179" y="79" type="line" smooth="yes"/>
      <point x="179" y="34"/>
      <point x="217" y="0"/>
    </contour>
  </outline>
</glyph>
<glyph name="P" format="1">
  <advance width="1203"/>
  <unicode hex="0050"/>
  <outline>
    <contour>
      <point x="640" y="1438" type="move" name="top"/>
    </contour>
    <contour>
      <point x="265" y="0" type="curve" smooth="yes"/>
      <point x="308" y="0"/>
      <point x="353" y="26"/>
      <point x="353" y="82" type="curve" smooth="yes"/>
      <point x="353" y="630" type="line"/>
      <point x="667" y="630" type="line" smooth="yes"/>
      <point x="958" y="630"/>
      <point x="1179" y="723"/>
      <point x="1179" y="1027" type="curve" smooth="yes"/>
      <point x="1179" y="1324"/>
      <point x="990" y="1426"/>
      <point x="681" y="1426" type="curve" smooth="yes"/>
      <point x="266" y="1426" type="line" smooth="yes"/>
      <point x="216" y="1426"/>
      <point x="178" y="1387"/>
      <point x="178" y="1340" type="curve" smooth="yes"/>
      <point x="178" y="82" type="line" smooth="yes"/>
      <point x="178" y="27"/>
      <point x="221" y="0"/>
    </contour>
    <contour>
      <point x="353" y="763" type="line"/>
      <point x="353" y="1287" type="line"/>
      <point x="683" y="1287" type="line" smooth="yes"/>
      <point x="915" y="1287"/>
      <point x="1008" y="1211"/>
      <point x="1008" y="1027" type="curve" smooth="yes"/>
      <point x="1008" y="839"/>
      <point x="901" y="763"/>
      <point x="668" y="763" type="curve" smooth="yes"/>
    </contour>
  </outline>
</glyph>
<glyph name="Q" format="1">
  <advance width="1597"/>
  <unicode hex="0051"/>
  <outline>
    <component base="O"/>
    <contour>
      <point x="728" y="29" type="line"/>
      <point x="1301" y="-223" type="line" smooth="yes"/>
      <point x="1343" y="-242"/>
      <point x="1380" y="-221"/>
      <point x="1395" y="-188" type="curve" smooth="yes"/>
      <point x="1409" y="-156"/>
      <point x="1398" y="-114"/>
      <point x="1358" y="-96" type="curve" smooth="yes"/>
      <point x="994" y="62" type="line"/>
    </contour>
  </outline>
</glyph>
<glyph name="S" format="1">
  <advance width="1266"/>
  <unicode hex="0053"/>
  <outline>
    <contour>
      <point x="625" y="-22" type="curve" smooth="yes"/>
      <point x="940" y="-22"/>
      <point x="1143" y="117"/>
      <point x="1143" y="381" type="curve" smooth="yes"/>
      <point x="1143" y="598"/>
      <point x="1000" y="684"/>
      <point x="801" y="750" type="curve" smooth="yes"/>
      <point x="539" y="836" type="line" smooth="yes"/>
      <point x="384" y="886"/>
      <point x="304" y="943"/>
      <point x="304" y="1066" type="curve" smooth="yes"/>
      <point x="304" y="1206"/>
      <point x="435" y="1301"/>
      <point x="648" y="1301" type="curve" smooth="yes"/>
      <point x="818" y="1301"/>
      <point x="955" y="1219"/>
      <point x="1002" y="1184" type="curve" smooth="yes"/>
      <point x="1015" y="1174"/>
      <point x="1028" y="1170"/>
      <point x="1041" y="1170" type="curve" smooth="yes"/>
      <point x="1075" y="1170"/>
      <point x="1106" y="1200"/>
      <point x="1106" y="1232" type="curve" smooth="yes"/>
      <point x="1106" y="1246"/>
      <point x="1100" y="1261"/>
      <point x="1086" y="1274" type="curve" smooth="yes"/>
      <point x="1012" y="1345"/>
      <point x="833" y="1430"/>
      <point x="635" y="1430" type="curve" smooth="yes"/>
      <point x="363" y="1430"/>
      <point x="148" y="1289"/>
      <point x="148" y="1062" type="curve" smooth="yes"/>
      <point x="148" y="862"/>
      <point x="276" y="773"/>
      <point x="462" y="711" type="curve" smooth="yes"/>
      <point x="722" y="623" type="line"/>
      <point x="902" y="564"/>
      <point x="986" y="516"/>
      <point x="986" y="354" type="curve" smooth="yes"/>
      <point x="986" y="190"/>
      <point x="831" y="107"/>
      <point x="638" y="107" type="curve" smooth="yes"/>
      <point x="465" y="107"/>
      <point x="330" y="178"/>
      <point x="253" y="244" type="curve" smooth="yes"/>
      <point x="246" y="250"/>
      <point x="238" y="253"/>
      <point x="229" y="253" type="curve" smooth="yes"/>
      <point x="193" y="253"/>
      <point x="148" y="212"/>
      <point x="148" y="179" type="curve" smooth="yes"/>
      <point x="148" y="170"/>
      <point x="151" y="162"/>
      <point x="158" y="155" type="curve" smooth="yes"/>
      <point x="261" y="55"/>
      <point x="415" y="-22"/>
    </contour>
  </outline>
</glyph>
<glyph name="T" format="1">
  <advance width="1156"/>
  <unicode hex="0054"/>
  <outline>
    <contour>
      <point x="595" y="1438" type="move" name="top"/>
    </contour>
    <contour>
      <point x="581" y="9" type="move" name="bot"/>
    </contour>
    <contour>
      <point x="587" y="741" type="move" name="mid"/>
    </contour>
    <contour>
      <point x="581" y="0" type="curve" smooth="yes"/>
      <point x="624" y="0"/>
      <point x="669" y="28"/>
      <point x="669" y="83" type="curve" smooth="yes"/>
      <point x="669" y="1287" type="line"/>
      <point x="1055" y="1287" type="line" smooth="yes"/>
      <point x="1104" y="1287"/>
      <point x="1129" y="1320"/>
      <point x="1129" y="1356" type="curve" smooth="yes"/>
      <point x="1129" y="1392"/>
      <point x="1106" y="1426"/>
      <point x="1055" y="1426" type="curve" smooth="yes"/>
      <point x="100" y="1426" type="line" smooth="yes"/>
      <point x="52" y="1426"/>
      <point x="27" y="1392"/>
      <point x="27" y="1356" type="curve" smooth="yes"/>
      <point x="27" y="1321"/>
      <point x="52" y="1287"/>
      <point x="100" y="1287" type="curve" smooth="yes"/>
      <point x="494" y="1287" type="line"/>
      <point x="494" y="83" type="line" smooth="yes"/>
      <point x="494" y="28"/>
      <point x="537" y="0"/>
    </contour>
  </outline>
</glyph>
<glyph name="U" format="1">
  <advance width="1489"/>
  <unicode hex="0055"/>
  <outline>
    <contour>
      <point x="755" y="1438" type="move" name="top"/>
    </contour>
    <contour>
      <point x="856" y="9" type="move" name="ogonek"/>
    </contour>
    <contour>
      <point x="745" y="-22" type="curve" smooth="yes"/>
      <point x="1031" y="-22"/>
      <point x="1300" y="145"/>
      <point x="1300" y="496" type="curve" smooth="yes"/>
      <point x="1300" y="1342" type="line" smooth="yes"/>
      <point x="1300" y="1398"/>
      <point x="1257" y="1425"/>
      <point x="1214" y="1425" type="curve" smooth="yes"/>
      <point x="1169" y="1425"/>
      <point x="1126" y="1397"/>
      <point x="1126" y="1342" type="curve" smooth="yes"/>
      <point x="1126" y="500" type="line" smooth="yes"/>
      <point x="1126" y="240"/>
      <point x="935" y="117"/>
      <point x="745" y="117" type="curve" smooth="yes"/>
      <point x="554" y="117"/>
      <point x="364" y="240"/>
      <point x="364" y="500" type="curve" smooth="yes"/>
      <point x="364" y="1342" type="line" smooth="yes"/>
      <point x="364" y="1398"/>
      <point x="321" y="1425"/>
      <point x="278" y="1425" type="curve" smooth="yes"/>
      <point x="233" y="1425"/>
      <point x="190" y="1397"/>
      <point x="190" y="1342" type="curve" smooth="yes"/>
      <point x="190" y="496" type="line" smooth="yes"/>
      <point x="190" y="145"/>
      <point x="458" y="-22"/>
    </contour>
  </outline>
</glyph>
<glyph name="W" format="1">
  <advance width="2136"/>
  <unicode hex="0057"/>
  <outline>
    <contour>
      <point x="1706" y="87" type="curve" smooth="yes"/>
      <point x="2045" y="1321" type="line" smooth="yes"/>
      <point x="2048" y="1331"/>
      <point x="2049" y="1341"/>
      <point x="2049" y="1350" type="curve" smooth="yes"/>
      <point x="2049" y="1398"/>
      <point x="2011" y="1425"/>
      <point x="1972" y="1425" type="curve" smooth="yes"/>
      <point x="1939" y="1425"/>
      <point x="1906" y="1406"/>
      <point x="1896" y="1366" type="curve" smooth="yes"/>
      <point x="1577" y="153" type="line"/>
      <point x="1187" y="1295" type="line" smooth="yes"/>
      <point x="1148" y="1410"/>
      <point x="1115" y="1424"/>
      <point x="1064" y="1424" type="curve" smooth="yes"/>
      <point x="1013" y="1424"/>
      <point x="977" y="1400"/>
      <point x="940" y="1295" type="curve"/>
      <point x="550" y="153" type="line"/>
      <point x="232" y="1366" type="line" smooth="yes"/>
      <point x="222" y="1406"/>
      <point x="189" y="1425"/>
      <point x="156" y="1425" type="curve" smooth="yes"/>
      <point x="117" y="1425"/>
      <point x="79" y="1398"/>
      <point x="79" y="1350" type="curve" smooth="yes"/>
      <point x="79" y="1341"/>
      <point x="80" y="1332"/>
      <point x="83" y="1321" type="curve" smooth="yes"/>
      <point x="422" y="87" type="line" smooth="yes"/>
      <point x="439" y="23"/>
      <point x="488" y="-8"/>
      <point x="538" y="-8" type="curve" smooth="yes"/>
      <point x="590" y="-8"/>
      <point x="643" y="25"/>
      <point x="665" y="88" type="curve" smooth="yes"/>
      <point x="1064" y="1240" type="line"/>
      <point x="1462" y="88" type="line" smooth="yes"/>
      <point x="1485" y="22"/>
      <point x="1535" y="-8"/>
      <point x="1585" y="-8" type="curve" smooth="yes"/>
      <point x="1637" y="-8"/>
      <point x="1689" y="25"/>
    </contour>
  </outline>
</glyph>
<glyph name="X" format="1">
  <advance width="1265"/>
  <unicode hex="0058"/>
  <outline>
    <contour>
      <point x="1037" y="40" type="line" smooth="yes"/>
      <point x="1053" y="17"/>
      <point x="1075" y="7"/>
      <point x="1097" y="7" type="curve" smooth="yes"/>
      <point x="1138" y="7"/>
      <point x="1180" y="40"/>
      <point x="1180" y="79" type="curve" smooth="yes"/>
      <point x="1180" y="91"/>
      <point x="1176" y="103"/>
      <point x="1168" y="115" type="curve" smooth="yes"/>
      <point x="728" y="725" type="line"/>
      <point x="1161" y="1323" type="line" smooth="yes"/>
      <point x="1171" y="1336"/>
      <point x="1175" y="1350"/>
      <point x="1175" y="1362" type="curve" smooth="yes"/>
      <point x="1175" y="1397"/>
      <point x="1142" y="1424"/>
      <point x="1106" y="1424" type="curve" smooth="yes"/>
      <point x="1084" y="1424"/>
      <point x="1060" y="1414"/>
      <point x="1041" y="1388" type="curve" smooth="yes"/>
      <point x="645" y="840" type="line"/>
      <point x="253" y="1390" type="line" smooth="yes"/>
      <point x="235" y="1414"/>
      <point x="214" y="1424"/>
      <point x="192" y="1424" type="curve" smooth="yes"/>
      <point x="149" y="1424"/>
      <point x="107" y="1386"/>
      <point x="107" y="1349" type="curve" smooth="yes"/>
      <point x="107" y="1339"/>
      <point x="110" y="1329"/>
      <point x="117" y="1320" type="curve" smooth="yes"/>
      <point x="544" y="722" type="line"/>
      <point x="92" y="114" type="line" smooth="yes"/>
      <point x="83" y="101"/>
      <point x="79" y="88"/>
      <point x="79" y="75" type="curve" smooth="yes"/>
      <point x="79" y="37"/>
      <point x="111" y="3"/>
      <point x="149" y="3" type="curve" smooth="yes"/>
      <point x="170" y="3"/>
      <point x="193" y="13"/>
      <point x="212" y="40" type="curve" smooth="yes"/>
      <point x="627" y="607" type="line"/>
    </contour>
  </outline>
</glyph>
<glyph name="Y" format="1">
  <advance width="1277"/>
  <unicode hex="0059"/>
  <outline>
    <contour>
      <point x="666" y="1438" type="move" name="top"/>
    </contour>
    <contour>
      <point x="554" y="83" type="line" smooth="yes"/>
      <point x="554" y="-26"/>
      <point x="728" y="-26"/>
      <point x="728" y="83" type="curve" smooth="yes"/>
      <point x="728" y="608" type="line"/>
      <point x="1191" y="1312" type="line" smooth="yes"/>
      <point x="1245" y="1394"/>
      <point x="1124" y="1476"/>
      <point x="1064" y="1382" type="curve" smooth="yes"/>
      <point x="651" y="740" type="line"/>
      <point x="236" y="1384" type="line" smooth="yes"/>
      <point x="177" y="1474"/>
      <point x="32" y="1392"/>
      <point x="91" y="1303" type="curve" smooth="yes"/>
      <point x="554" y="603" type="line"/>
    </contour>
  </outline>
</glyph>
<glyph name="Z" format="1">
  <advance width="1164"/>
  <unicode hex="005A"/>
  <outline>
    <contour>
      <point x="636" y="1438" type="move" name="top"/>
    </contour>
    <contour>
      <point x="208" y="0" type="curve" smooth="yes"/>
      <point x="1028" y="0" type="line" smooth="yes"/>
      <point x="1077" y="0"/>
      <point x="1101" y="33"/>
      <point x="1101" y="70" type="curve" smooth="yes"/>
      <point x="1101" y="105"/>
      <point x="1077" y="138"/>
      <point x="1028" y="138" type="curve" smooth="yes"/>
      <point x="295" y="138" type="line"/>
      <point x="1087" y="1274" type="line" smooth="yes"/>
      <point x="1104" y="1298"/>
      <point x="1110" y="1323"/>
      <point x="1110" y="1343" type="curve" smooth="yes"/>
      <point x="1110" y="1391"/>
      <point x="1076" y="1426"/>
      <point x="1020" y="1426" type="curve" smooth="yes"/>
      <point x="181" y="1426" type="line" smooth="yes"/>
      <point x="132" y="1426"/>
      <point x="109" y="1392"/>
      <point x="109" y="1357" type="curve" smooth="yes"/>
      <point x="109" y="1320"/>
      <point x="133" y="1287"/>
      <point x="181" y="1287" type="curve" smooth="yes"/>
      <point x="913" y="1287" type="line"/>
      <point x="121" y="152" type="line" smooth="yes"/>
      <point x="108" y="133"/>
      <point x="101" y="112"/>
      <point x="101" y="89" type="curve" smooth="yes"/>
      <point x="101" y="44"/>
      <point x="132" y="0"/>
    </contour>
  </outline>
</glyph>
<glyph name="bracketright" format="1">
  <advance width="596"/>
  <unicode hex="005D"/>
  <outline>
    <contour>
      <point x="168" y="-196" type="curve"/>
      <point x="345" y="-196" type="line" smooth="yes"/>
      <point x="387" y="-196"/>
      <point x="422" y="-163"/>
      <point x="422" y="-122" type="curve" smooth="yes"/>
      <point x="422" y="1349" type="line" smooth="yes"/>
      <point x="422" y="1391"/>
      <point x="387" y="1424"/>
      <point x="345" y="1424" type="curve" smooth="yes"/>
      <point x="168" y="1424" type="line" smooth="yes"/>
      <point x="128" y="1424"/>
      <point x="110" y="1396"/>
      <point x="110" y="1367" type="curve" smooth="yes"/>
      <point x="110" y="1338"/>
      <point x="130" y="1309"/>
      <point x="168" y="1309" type="curve" smooth="yes"/>
      <point x="270" y="1309" type="line"/>
      <point x="270" y="-81" type="line"/>
      <point x="168" y="-81" type="line" smooth="yes"/>
      <point x="130" y="-81"/>
      <point x="110" y="-109"/>
      <point x="110" y="-138" type="curve" smooth="yes"/>
      <point x="110" y="-166"/>
      <point x="130" y="-197"/>
    </contour>
  </outline>
</glyph>
<glyph name="asciicircum" format="1">
  <advance width="1341"/>
  <unicode hex="005E"/>
  <outline>
    <contour>
      <point x="257" y="491" type="curve" smooth="yes"/>
      <point x="280" y="491"/>
      <point x="305" y="501"/>
      <point x="318" y="532" type="curve"/>
      <point x="668" y="1235" type="line"/>
      <point x="1016" y="532" type="line" smooth="yes"/>
      <point x="1030" y="503"/>
      <point x="1053" y="491"/>
      <point x="1077" y="491" type="curve" smooth="yes"/>
      <point x="1113" y="491"/>
      <point x="1148" y="519"/>
      <point x="1148" y="555" type="curve" smooth="yes"/>
      <point x="1148" y="563"/>
      <point x="1146" y="572"/>
      <point x="1142" y="581" type="curve" smooth="yes"/>
      <point x="752" y="1340" type="line" smooth="yes"/>
      <point x="733" y="1375"/>
      <point x="702" y="1393"/>
      <point x="668" y="1393" type="curve" smooth="yes"/>
      <point x="636" y="1393"/>
      <point x="604" y="1375"/>
      <point x="586" y="1340" type="curve" smooth="yes"/>
      <point x="193" y="581" type="line" smooth="yes"/>
      <point x="189" y="572"/>
      <point x="188" y="563"/>
      <point x="188" y="554" type="curve" smooth="yes"/>
      <point x="188" y="516"/>
      <point x="222" y="491"/>
    </contour>
  </outline>
</glyph>
<glyph name="a" format="1">
  <advance width="1035"/>
  <unicode hex="0061"/>
  <outline>
    <contour>
      <point x="496" y="989" type="move" name="top"/>
    </contour>
    <contour>
      <point x="818" y="6" type="move" name="ogonek"/>
    </contour>
    <contour>
      <point x="420" y="-21" type="curve" smooth="yes"/>
      <point x="590" y="-21"/>
      <point x="686" y="68"/>
      <point x="745" y="193" type="curve"/>
      <point x="745" y="60" type="line" smooth="yes"/>
      <point x="745" y="-28"/>
      <point x="890" y="-18"/>
      <point x="890" y="63" type="curve" smooth="yes"/>
      <point x="890" y="678" type="line" smooth="yes"/>
      <point x="890" y="912"/>
      <point x="741" y="1013"/>
      <point x="510" y="1013" type="curve" smooth="yes"/>
      <point x="355" y="1013"/>
      <point x="234" y="980"/>
      <point x="138" y="920" type="curve" smooth="yes"/>
      <point x="89" y="887"/>
      <point x="142" y="806"/>
      <point x="195" y="834" type="curve" smooth="yes"/>
      <point x="283" y="876"/>
      <point x="368" y="912"/>
      <point x="507" y="912" type="curve" smooth="yes"/>
      <point x="647" y="912"/>
      <point x="746" y="848"/>
      <point x="746" y="692" type="curve" smooth="yes"/>
      <point x="746" y="566" type="line"/>
      <point x="229" y="566"/>
      <point x="66" y="517"/>
      <point x="66" y="267" type="curve" smooth="yes"/>
      <point x="66" y="77"/>
      <point x="214" y="-21"/>
    </contour>
    <contour>
      <point x="438" y="78" type="curve" smooth="yes"/>
      <point x="301" y="78"/>
      <point x="206" y="133"/>
      <point x="206" y="271" type="curve" smooth="yes"/>
      <point x="205" y="441"/>
      <point x="306" y="479"/>
      <point x="746" y="479" type="curve"/>
      <point x="746" y="446" type="line" smooth="yes"/>
      <point x="746" y="225"/>
      <point x="597" y="78"/>
    </contour>
  </outline>
</glyph>
<glyph name="b" format="1">
  <advance width="1175"/>
  <unicode hex="0062"/>
  <outline>
    <contour>
      <point x="660" y="-21" type="curve" smooth="yes"/>
      <point x="953" y="-21"/>
      <point x="1088" y="224"/>
      <point x="1088" y="501" type="curve" smooth="yes"/>
      <point x="1088" y="771"/>
      <point x="935" y="1013"/>
      <point x="644" y="1013" type="curve" smooth="yes"/>
      <point x="496" y="1013"/>
      <point x="365" y="938"/>
      <point x="309" y="806" type="curve"/>
      <point x="309" y="1355" type="line" smooth="yes"/>
      <point x="309" y="1400"/>
      <point x="272" y="1423"/>
      <point x="235" y="1423" type="curve" smooth="yes"/>
      <point x="199" y="1423"/>
      <point x="162" y="1400"/>
      <point x="162" y="1355" type="curve" smooth="yes"/>
      <point x="162" y="69" type="line" smooth="yes"/>
      <point x="162" y="25"/>
      <point x="197" y="4"/>
      <point x="234" y="4" type="curve" smooth="yes"/>
      <point x="293" y="4"/>
      <point x="309" y="39"/>
      <point x="309" y="69" type="curve" smooth="yes"/>
      <point x="309" y="188" type="line"/>
      <point x="374" y="47"/>
      <point x="510" y="-21"/>
    </contour>
    <contour>
      <point x="645" y="80" type="curve" smooth="yes"/>
      <point x="388" y="80"/>
      <point x="310" y="279"/>
      <point x="310" y="501" type="curve" smooth="yes"/>
      <point x="310" y="705"/>
      <point x="401" y="912"/>
      <point x="630" y="912" type="curve" smooth="yes"/>
      <point x="863" y="912"/>
      <point x="941" y="688"/>
      <point x="941" y="494" type="curve" smooth="yes"/>
      <point x="941" y="309"/>
      <point x="874" y="83"/>
    </contour>
  </outline>
</glyph>
<glyph name="c" format="1">
  <advance width="956"/>
  <unicode hex="0063"/>
  <outline>
    <contour>
      <point x="557" y="1001" type="move" name="top"/>
    </contour>
    <contour>
      <point x="533" y="9" type="move" name="bot"/>
    </contour>
    <contour>
      <point x="549" y="-22" type="curve" smooth="yes"/>
      <point x="684" y="-22"/>
      <point x="789" y="15"/>
      <point x="852" y="65" type="curve" smooth="yes"/>
      <point x="926" y="124"/>
      <point x="858" y="195"/>
      <point x="800" y="156" type="curve" smooth="yes"/>
      <point x="729" y="108"/>
      <point x="648" y="88"/>
      <point x="561" y="88" type="curve" smooth="yes"/>
      <point x="326" y="88"/>
      <point x="243" y="304"/>
      <point x="243" y="491" type="curve" smooth="yes"/>
      <point x="243" y="756"/>
      <point x="390" y="906"/>
      <point x="581" y="906" type="curve" smooth="yes"/>
      <point x="653" y="906"/>
      <point x="728" y="886"/>
      <point x="792" y="841" type="curve" smooth="yes"/>
      <point x="853" y="797"/>
      <point x="920" y="865"/>
      <point x="851" y="924" type="curve" smooth="yes"/>
      <point x="796" y="974"/>
      <point x="692" y="1013"/>
      <point x="578" y="1013" type="curve" smooth="yes"/>
      <point x="277" y="1013"/>
      <point x="86" y="789"/>
      <point x="86" y="496" type="curve" smooth="yes"/>
      <point x="86" y="202"/>
      <point x="255" y="-22"/>
    </contour>
  </outline>
</glyph>
<glyph name="e" format="1">
  <advance width="1134"/>
  <unicode hex="0065"/>
  <outline>
    <contour>
      <point x="584" y="1001" type="move" name="top"/>
    </contour>
    <contour>
      <point x="740" y="25" type="move" name="ogonek"/>
    </contour>
    <contour>
      <point x="580" y="-20" type="curve" smooth="yes"/>
      <point x="780" y="-20"/>
      <point x="893" y="58"/>
      <point x="968" y="129" type="curve" smooth="yes"/>
      <point x="1030" y="186"/>
      <point x="968" y="267"/>
      <point x="906" y="218" type="curve" smooth="yes"/>
      <point x="827" y="154"/>
      <point x="734" y="93"/>
      <point x="588" y="93" type="curve" smooth="yes"/>
      <point x="409" y="96"/>
      <point x="252" y="215"/>
      <point x="253" y="469" type="curve"/>
      <point x="957" y="469" type="line" smooth="yes"/>
      <point x="1001" y="469"/>
      <point x="1021" y="495"/>
      <point x="1021" y="526" type="curve" smooth="yes"/>
      <point x="1013" y="785"/>
      <point x="898" y="1013"/>
      <point x="572" y="1013" type="curve" smooth="yes"/>
      <point x="269" y="1013"/>
      <point x="95" y="771"/>
      <point x="95" y="495" type="curve" smooth="yes"/>
      <point x="95" y="174"/>
      <point x="311" y="-20"/>
    </contour>
    <contour>
      <point x="257" y="567" type="line"/>
      <point x="270" y="740"/>
      <point x="377" y="905"/>
      <point x="583" y="905" type="curve" smooth="yes"/>
      <point x="785" y="905"/>
      <point x="871" y="752"/>
      <point x="882" y="567" type="curve"/>
    </contour>
  </outline>
</glyph>
<glyph name="f" format="1">
  <advance width="695"/>
  <unicode hex="0066"/>
  <outline>
    <contour>
      <point x="320" y="0" type="curve" smooth="yes"/>
      <point x="361" y="0"/>
      <point x="400" y="27"/>
      <point x="400" y="78" type="curve" smooth="yes"/>
      <point x="400" y="877" type="line"/>
      <point x="581" y="877" type="line" smooth="yes"/>
      <point x="624" y="877"/>
      <point x="636" y="898"/>
      <point x="636" y="929" type="curve" smooth="yes"/>
      <point x="636" y="957"/>
      <point x="624" y="981"/>
      <point x="581" y="981" type="curve" smooth="yes"/>
      <point x="400" y="981" type="line"/>
      <point x="400" y="1052" type="line" smooth="yes"/>
      <point x="400" y="1286"/>
      <point x="434" y="1320"/>
      <point x="547" y="1320" type="curve" smooth="yes"/>
      <point x="632" y="1320" type="line" smooth="yes"/>
      <point x="707" y="1320"/>
      <point x="704" y="1438"/>
      <point x="633" y="1438" type="curve" smooth="yes"/>
      <point x="513" y="1438" type="line" smooth="yes"/>
      <point x="361" y="1438"/>
      <point x="243" y="1372"/>
      <point x="243" y="1112" type="curve" smooth="yes"/>
      <point x="243" y="981" type="line"/>
      <point x="102" y="981" type="line" smooth="yes"/>
      <point x="59" y="981"/>
      <point x="43" y="957"/>
      <point x="43" y="929" type="curve" smooth="yes"/>
      <point x="43" y="900"/>
      <point x="59" y="877"/>
      <point x="102" y="877" type="curve" smooth="yes"/>
      <point x="243" y="877" type="line"/>
      <point x="243" y="78" type="line" smooth="yes"/>
      <point x="243" y="26"/>
      <point x="282" y="0"/>
    </contour>
  </outline>
</glyph>
<glyph name="g" format="1">
  <advance width="1165"/>
  <unicode hex="0067"/>
  <outline>
    <contour>
      <point x="538" y="991" type="move" name="top"/>
    </contour>
    <contour>
      <point x="554" y="-414" type="curve" smooth="yes"/>
      <point x="838" y="-414"/>
      <point x="1019" y="-280"/>
      <point x="1019" y="-1" type="curve" smooth="yes"/>
      <point x="1019" y="918" type="line" smooth="yes"/>
      <point x="1019" y="966"/>
      <point x="983" y="991"/>
      <point x="945" y="991" type="curve" smooth="yes"/>
      <point x="910" y="991"/>
      <point x="874" y="968"/>
      <point x="871" y="924" type="curve"/>
      <point x="871" y="803" type="line"/>
      <point x="814" y="930"/>
      <point x="706" y="1013"/>
      <point x="531" y="1013" type="curve" smooth="yes"/>
      <point x="240" y="1013"/>
      <point x="86" y="773"/>
      <point x="86" y="491" type="curve" smooth="yes"/>
      <point x="86" y="232"/>
      <point x="237" y="0"/>
      <point x="535" y="0" type="curve" smooth="yes"/>
      <point x="704" y="0"/>
      <point x="818" y="97"/>
      <point x="865" y="217" type="curve"/>
      <point x="865" y="0" type="line" smooth="yes"/>
      <point x="865" y="-195"/>
      <point x="768" y="-302"/>
      <point x="544" y="-302" type="curve" smooth="yes"/>
      <point x="413" y="-302"/>
      <point x="314" y="-264"/>
      <point x="257" y="-242" type="curve" smooth="yes"/>
      <point x="195" y="-219"/>
      <point x="149" y="-313"/>
      <point x="222" y="-349" type="curve" smooth="yes"/>
      <point x="282" y="-377"/>
      <point x="393" y="-414"/>
    </contour>
    <contour>
      <point x="545" y="106" type="curve" smooth="yes"/>
      <point x="382" y="114"/>
      <point x="243" y="232"/>
      <point x="243" y="497" type="curve" smooth="yes"/>
      <point x="243" y="724"/>
      <point x="342" y="905"/>
      <point x="559" y="905" type="curve" smooth="yes"/>
      <point x="796" y="905"/>
      <point x="866" y="688"/>
      <point x="864" y="493" type="curve" smooth="yes"/>
      <point x="861" y="245"/>
      <point x="720" y="97"/>
    </contour>
  </outline>
</glyph>
<glyph name="h" format="1">
  <advance width="1147"/>
  <unicode hex="0068"/>
  <outline>
    <contour>
      <point x="236" y="0" type="curve" smooth="yes"/>
      <point x="276" y="0"/>
      <point x="316" y="24"/>
      <point x="316" y="75" type="curve" smooth="yes"/>
      <point x="316" y="576" type="line" smooth="yes"/>
      <point x="316" y="792"/>
      <point x="456" y="890"/>
      <point x="622" y="890" type="curve" smooth="yes"/>
      <point x="760" y="890"/>
      <point x="847" y="815"/>
      <point x="847" y="645" type="curve" smooth="yes"/>
      <point x="847" y="75" type="line" smooth="yes"/>
      <point x="847" y="24"/>
      <point x="885" y="0"/>
      <point x="924" y="0" type="curve" smooth="yes"/>
      <point x="964" y="0"/>
      <point x="1004" y="24"/>
      <point x="1004" y="75" type="curve" smooth="yes"/>
      <point x="1004" y="633" type="line" smooth="yes"/>
      <point x="1004" y="907"/>
      <point x="840" y="1013"/>
      <point x="649" y="1013" type="curve" smooth="yes"/>
      <point x="511" y="1013"/>
      <point x="369" y="948"/>
      <point x="316" y="823" type="curve"/>
      <point x="316" y="1353" type="line" smooth="yes"/>
      <point x="316" y="1401"/>
      <point x="278" y="1425"/>
      <point x="238" y="1425" type="curve" smooth="yes"/>
      <point x="199" y="1425"/>
      <point x="159" y="1400"/>
      <point x="159" y="1353" type="curve" smooth="yes"/>
      <point x="159" y="75" type="line" smooth="yes"/>
      <point x="159" y="24"/>
      <point x="197" y="0"/>
    </contour>
  </outline>
</glyph>
<glyph name="j" format="1">
  <advance width="495"/>
  <unicode hex="006A"/>
  <outline>
    <contour>
      <point x="21" y="-377" type="curve" smooth="yes"/>
      <point x="325" y="-377"/>
      <point x="338" y="-282"/>
      <point x="338" y="-34" type="curve" smooth="yes"/>
      <point x="338" y="912" type="line" smooth="yes"/>
      <point x="338" y="964"/>
      <point x="299" y="991"/>
      <point x="261" y="991" type="curve" smooth="yes"/>
      <point x="221" y="991"/>
      <point x="180" y="964"/>
      <point x="180" y="912" type="curve" smooth="yes"/>
      <point x="180" y="-73" type="line" smooth="yes"/>
      <point x="180" y="-238"/>
      <point x="162" y="-253"/>
      <point x="22" y="-253" type="curve" smooth="yes"/>
      <point x="-55" y="-253"/>
      <point x="-57" y="-377"/>
    </contour>
    <contour>
      <point x="256" y="1235" type="curve" smooth="yes"/>
      <point x="320" y="1235"/>
      <point x="364" y="1276"/>
      <point x="364" y="1336" type="curve" smooth="yes"/>
      <point x="364" y="1396"/>
      <point x="321" y="1437"/>
      <point x="257" y="1437" type="curve" smooth="yes"/>
      <point x="193" y="1437"/>
      <point x="149" y="1396"/>
      <point x="149" y="1336" type="curve" smooth="yes"/>
      <point x="149" y="1276"/>
      <point x="192" y="1235"/>
    </contour>
  </outline>
</glyph>
<glyph name="k" format="1">
  <advance width="982"/>
  <unicode hex="006B"/>
  <outline>
    <contour>
      <point x="517" y="0" type="move" name="bot"/>
    </contour>
    <contour>
      <point x="794" y="26" type="line" smooth="yes"/>
      <point x="860" y="-45"/>
      <point x="962" y="52"/>
      <point x="899" y="118" type="curve" smooth="yes"/>
      <point x="487" y="554" type="line"/>
      <point x="870" y="891" type="line" smooth="yes"/>
      <point x="938" y="950"/>
      <point x="842" y="1043"/>
      <point x="782" y="991" type="curve" smooth="yes"/>
      <point x="316" y="574" type="line"/>
      <point x="316" y="537" type="line"/>
    </contour>
    <contour>
      <point x="235" y="0" type="curve" smooth="yes"/>
      <point x="276" y="0"/>
      <point x="316" y="28"/>
      <point x="316" y="80" type="curve" smooth="yes"/>
      <point x="316" y="1346" type="line" smooth="yes"/>
      <point x="316" y="1398"/>
      <point x="277" y="1425"/>
      <point x="238" y="1425" type="curve" smooth="yes"/>
      <point x="199" y="1425"/>
      <point x="159" y="1398"/>
      <point x="159" y="1346" type="curve" smooth="yes"/>
      <point x="159" y="80" type="line" smooth="yes"/>
      <point x="159" y="24"/>
      <point x="197" y="0"/>
    </contour>
  </outline>
</glyph>
<glyph name="l" format="1">
  <advance width="492"/>
  <unicode hex="006C"/>
  <outline>
    <contour>
      <point x="311" y="1426" type="move" name="top"/>
    </contour>
    <contour>
      <point x="279" y="989" type="move" name="caron.alt"/>
    </contour>
    <contour>
      <point x="254" y="0" type="move" name="bot"/>
    </contour>
    <contour>
      <point x="254" y="0" type="curve" smooth="yes"/>
      <point x="293" y="0"/>
      <point x="335" y="28"/>
      <point x="335" y="80" type="curve" smooth="yes"/>
      <point x="335" y="1346" type="line" smooth="yes"/>
      <point x="335" y="1398"/>
      <point x="295" y="1425"/>
      <point x="257" y="1425" type="curve" smooth="yes"/>
      <point x="218" y="1425"/>
      <point x="178" y="1398"/>
      <point x="178" y="1346" type="curve" smooth="yes"/>
      <point x="178" y="80" type="line" smooth="yes"/>
      <point x="178" y="24"/>
      <point x="215" y="0"/>
    </contour>
  </outline>
</glyph>
<glyph name="n" format="1">
  <advance width="1146"/>
  <unicode hex="006E"/>
  <outline>
    <contour>
      <point x="615" y="991" type="move" name="top"/>
    </contour>
    <contour>
      <point x="576" y="0" type="move" name="bot"/>
    </contour>
    <contour>
      <point x="234" y="0" type="curve" smooth="yes"/>
      <point x="271" y="0"/>
      <point x="309" y="24"/>
      <point x="309" y="68" type="curve" smooth="yes"/>
      <point x="309" y="607" type="line" smooth="yes"/>
      <point x="324" y="805"/>
      <point x="444" y="912"/>
      <point x="605" y="912" type="curve" smooth="yes"/>
      <point x="771" y="912"/>
      <point x="850" y="810"/>
      <point x="850" y="625" type="curve" smooth="yes"/>
      <point x="850" y="68" type="line" smooth="yes"/>
      <point x="850" y="21"/>
      <point x="887" y="0"/>
      <point x="924" y="0" type="curve" smooth="yes"/>
      <point x="960" y="0"/>
      <point x="997" y="21"/>
      <point x="997" y="68" type="curve" smooth="yes"/>
      <point x="997" y="623" type="line" smooth="yes"/>
      <point x="997" y="897"/>
      <point x="859" y="1013"/>
      <point x="636" y="1013" type="curve" smooth="yes"/>
      <point x="488" y="1013"/>
      <point x="355" y="942"/>
      <point x="309" y="808" type="curve"/>
      <point x="309" y="921" type="line" smooth="yes"/>
      <point x="309" y="966"/>
      <point x="272" y="988"/>
      <point x="236" y="988" type="curve" smooth="yes"/>
      <point x="200" y="988"/>
      <point x="162" y="966"/>
      <point x="162" y="919" type="curve" smooth="yes"/>
      <point x="162" y="68" type="line" smooth="yes"/>
      <point x="162" y="21"/>
      <point x="198" y="0"/>
    </contour>
  </outline>
</glyph>
<glyph name="o" format="1">
  <advance width="1135"/>
  <unicode hex="006F"/>
  <outline>
    <contour>
      <point x="921" y="495" type="curve" smooth="yes"/>
      <point x="921" y="248"/>
      <point x="798" y="80"/>
      <point x="575" y="80" type="curve" smooth="yes"/>
      <point x="360" y="80"/>
      <point x="234" y="249"/>
      <point x="234" y="495" type="curve" smooth="yes"/>
      <point x="234" y="746"/>
      <point x="362" y="912"/>
      <point x="577" y="912" type="curve" smooth="yes"/>
      <point x="794" y="912"/>
      <point x="921" y="743"/>
    </contour>
    <contour>
      <point x="577" y="-21" type="curve" smooth="yes"/>
      <point x="862" y="-21"/>
      <point x="1068" y="174"/>
      <point x="1068" y="495" type="curve" smooth="yes"/>
      <point x="1068" y="814"/>
      <point x="864" y="1013"/>
      <point x="577" y="1013" type="curve" smooth="yes"/>
      <point x="292" y="1013"/>
      <point x="87" y="815"/>
      <point x="87" y="495" type="curve" smooth="yes"/>
      <point x="87" y="174"/>
      <point x="293" y="-21"/>
    </contour>
  </outline>
</glyph>
<glyph name="r" format="1">
  <advance width="713"/>
  <unicode hex="0072"/>
  <outline>
    <contour>
      <point x="379" y="1001" type="move" name="top"/>
    </contour>
    <contour>
      <point x="238" y="0" type="move" name="bot"/>
    </contour>
    <contour>
      <point x="238" y="0" type="curve" smooth="yes"/>
      <point x="279" y="0"/>
      <point x="319" y="25"/>
      <point x="319" y="73" type="curve" smooth="yes"/>
      <point x="319" y="617" type="line" smooth="yes"/>
      <point x="319" y="740"/>
      <point x="402" y="880"/>
      <point x="601" y="880" type="curve" smooth="yes"/>
      <point x="693" y="880"/>
      <point x="676" y="1014"/>
      <point x="603" y="1014" type="curve" smooth="yes"/>
      <point x="447" y="1014"/>
      <point x="349" y="912"/>
      <point x="319" y="797" type="curve"/>
      <point x="319" y="916" type="line" smooth="yes"/>
      <point x="319" y="1012"/>
      <point x="162" y="1012"/>
      <point x="162" y="916" type="curve" smooth="yes"/>
      <point x="162" y="73" type="line" smooth="yes"/>
      <point x="162" y="22"/>
      <point x="199" y="0"/>
    </contour>
  </outline>
</glyph>
<glyph name="v" format="1">
  <advance width="1025"/>
  <unicode hex="0076"/>
  <outline>
    <contour>
      <point x="517" y="0" type="curve"/>
      <point x="517" y="163" type="line"/>
      <point x="197" y="940" type="line" smooth="yes"/>
      <point x="154" y="1048"/>
      <point x="27" y="963"/>
      <point x="57" y="891" type="curve" smooth="yes"/>
      <point x="384" y="119" type="line" smooth="yes"/>
      <point x="419" y="35"/>
      <point x="447" y="0"/>
    </contour>
    <contour>
      <point x="517" y="0" type="line"/>
      <point x="587" y="0"/>
      <point x="615" y="35"/>
      <point x="651" y="119" type="curve" smooth="yes"/>
      <point x="978" y="891" type="line" smooth="yes"/>
      <point x="1008" y="963"/>
      <point x="880" y="1048"/>
      <point x="837" y="940" type="curve" smooth="yes"/>
      <point x="517" y="163" type="line"/>
    </contour>
  </outline>
</glyph>
<glyph name="y" format="1">
  <advance width="1021"/>
  <unicode hex="0079"/>
  <outline>
    <contour>
      <point x="561" y="996" type="move" name="top"/>
    </contour>
    <contour>
      <point x="514" y="-17" type="line"/>
      <point x="590" y="145" type="line"/>
      <point x="222" y="947" type="line" smooth="yes"/>
      <point x="181" y="1037"/>
      <point x="54" y="974"/>
      <point x="93" y="887" type="curve" smooth="yes"/>
    </contour>
    <contour>
      <point x="445" y="-329" type="curve" smooth="yes"/>
      <point x="1005" y="895" type="line" smooth="yes"/>
      <point x="1033" y="972"/>
      <point x="915" y="1033"/>
      <point x="872" y="942" type="curve" smooth="yes"/>
      <point x="311" y="-290" type="line" smooth="yes"/>
      <point x="270" y="-381"/>
      <point x="402" y="-425"/>
    </contour>
  </outline>
</glyph>
<glyph name="z" format="1">
  <advance width="930"/>
  <unicode hex="007A"/>
  <outline>
    <contour>
      <point x="466" y="1001" type="move" name="top"/>
    </contour>
    <contour>
      <point x="170" y="0" type="curve" smooth="yes"/>
      <point x="764" y="0" type="line" smooth="yes"/>
      <point x="809" y="0"/>
      <point x="832" y="32"/>
      <point x="832" y="63" type="curve" smooth="yes"/>
      <point x="832" y="94"/>
      <point x="809" y="125"/>
      <point x="764" y="125" type="curve" smooth="yes"/>
      <point x="268" y="125" type="line"/>
      <point x="814" y="852" type="line" smooth="yes"/>
      <point x="831" y="875"/>
      <point x="839" y="896"/>
      <point x="839" y="916" type="curve" smooth="yes"/>
      <point x="839" y="959"/>
      <point x="806" y="991"/>
      <point x="747" y="991" type="curve" smooth="yes"/>
      <point x="160" y="991" type="line" smooth="yes"/>
      <point x="118" y="991"/>
      <point x="96" y="959"/>
      <point x="96" y="928" type="curve" smooth="yes"/>
      <point x="96" y="897"/>
      <point x="117" y="868"/>
      <point x="160" y="868" type="curve" smooth="yes"/>
      <point x="652" y="868" type="line"/>
      <point x="106" y="139" type="line" smooth="yes"/>
      <point x="90" y="118"/>
      <point x="83" y="96"/>
      <point x="83" y="76" type="curve" smooth="yes"/>
      <point x="83" y="34"/>
      <point x="115" y="0"/>
    </contour>
  </outline>
</glyph>
<glyph name="braceright" format="1">
  <advance width="595"/>
  <unicode hex="007D"/>
  <outline>
    <contour>
      <point x="66" y="-203" type="curve" smooth="yes"/>
      <point x="180" y="-203" type="line" smooth="yes"/>
      <point x="266" y="-203"/>
      <point x="366" y="-114"/>
      <point x="366" y="23" type="curve" smooth="yes"/>
      <point x="366" y="318" type="line" smooth="yes"/>
      <point x="366" y="466"/>
      <point x="386" y="558"/>
      <point x="512" y="572" type="curve"/>
      <point x="554" y="572"/>
      <point x="576" y="604"/>
      <point x="576" y="635" type="curve" smooth="yes"/>
      <point x="576" y="665"/>
      <point x="557" y="698"/>
      <point x="515" y="698" type="curve" smooth="yes"/>
      <point x="513" y="698" type="line"/>
      <point x="387" y="712"/>
      <point x="366" y="805"/>
      <point x="366" y="955" type="curve" smooth="yes"/>
      <point x="366" y="1253" type="line" smooth="yes"/>
      <point x="366" y="1386"/>
      <point x="269" y="1479"/>
      <point x="180" y="1479" type="curve" smooth="yes"/>
      <point x="66" y="1479" type="line" smooth="yes"/>
      <point x="30" y="1479"/>
      <point x="14" y="1448"/>
      <point x="14" y="1420" type="curve" smooth="yes"/>
      <point x="14" y="1393"/>
      <point x="29" y="1362"/>
      <point x="65" y="1362" type="curve" smooth="yes"/>
      <point x="132" y="1362" type="line" smooth="yes"/>
      <point x="186" y="1362"/>
      <point x="215" y="1311"/>
      <point x="215" y="1217" type="curve" smooth="yes"/>
      <point x="215" y="921" type="line" smooth="yes"/>
      <point x="215" y="723"/>
      <point x="329" y="660"/>
      <point x="353" y="636" type="curve"/>
      <point x="332" y="623"/>
      <point x="215" y="546"/>
      <point x="215" y="353" type="curve" smooth="yes"/>
      <point x="215" y="62" type="line" smooth="yes"/>
      <point x="215" y="-32"/>
      <point x="187" y="-86"/>
      <point x="132" y="-86" type="curve" smooth="yes"/>
      <point x="66" y="-86" type="line" smooth="yes"/>
      <point x="31" y="-86"/>
      <point x="14" y="-116"/>
      <point x="14" y="-145" type="curve" smooth="yes"/>
      <point x="14" y="-173"/>
      <point x="29" y="-203"/>
    </contour>
  </outline>
</glyph>
<glyph name="cent" format="1">
  <advance width="1030"/>
  <unicode hex="00A2"/>
  <outline>
    <component base="c"/>
    <contour>
      <point x="547" y="-269" type="curve" smooth="yes"/>
      <point x="570" y="-269"/>
      <point x="594" y="-253"/>
      <point x="594" y="-220" type="curve" smooth="yes"/>
      <point x="594" y="29" type="line"/>
      <point x="499" y="30" type="line"/>
      <point x="499" y="-220" type="line" smooth="yes"/>
      <point x="499" y="-252"/>
      <point x="523" y="-269"/>
    </contour>
    <contour>
      <point x="499" y="959" type="line"/>
      <point x="594" y="960" type="line"/>
      <point x="594" y="1210" type="line" smooth="yes"/>
      <point x="594" y="1243"/>
      <point x="570" y="1259"/>
      <point x="547" y="1259" type="curve" smooth="yes"/>
      <point x="523" y="1259"/>
      <point x="499" y="1242"/>
      <point x="499" y="1210" type="curve" smooth="yes"/>
    </contour>
  </outline>
</glyph>
<glyph name="sterling" format="1">
  <advance width="1360"/>
  <unicode hex="00A3"/>
  <outline>
    <contour>
      <point x="227" y="-1" type="curve" smooth="yes"/>
      <point x="1074" y="-1" type="line" smooth="yes"/>
      <point x="1122" y="-1"/>
      <point x="1122" y="131"/>
      <point x="1074" y="131" type="curve" smooth="yes"/>
      <point x="492" y="131" type="line"/>
      <point x="492" y="762" type="line"/>
      <point x="870" y="762" type="line" smooth="yes"/>
      <point x="912" y="762"/>
      <point x="913" y="879"/>
      <point x="870" y="879" type="curve" smooth="yes"/>
      <point x="492" y="879" type="line"/>
      <point x="492" y="1005" type="line" smooth="yes"/>
      <point x="492" y="1235"/>
      <point x="519" y="1314"/>
      <point x="733" y="1314" type="curve" smooth="yes"/>
      <point x="820" y="1314"/>
      <point x="884" y="1299"/>
      <point x="959" y="1287" type="curve" smooth="yes"/>
      <point x="1002" y="1280"/>
      <point x="1019" y="1392"/>
      <point x="993" y="1399" type="curve" smooth="yes"/>
      <point x="903" y="1424"/>
      <point x="799" y="1438"/>
      <point x="712" y="1438" type="curve" smooth="yes"/>
      <point x="493" y="1438"/>
      <point x="333" y="1349"/>
      <point x="333" y="1091" type="curve" smooth="yes"/>
      <point x="333" y="879" type="line"/>
      <point x="193" y="879" type="line" smooth="yes"/>
      <point x="150" y="879"/>
      <point x="151" y="762"/>
      <point x="193" y="762" type="curve" smooth="yes"/>
      <point x="333" y="762" type="line"/>
      <point x="333" y="130" type="line"/>
      <point x="224" y="130" type="line" smooth="yes"/>
      <point x="178" y="130"/>
      <point x="179" y="-1"/>
    </contour>
  </outline>
</glyph>
<glyph name="currency" format="1">
  <advance width="1160"/>
  <unicode hex="00A4"/>
  <outline>
    <contour>
      <point x="198" y="159" type="curve" smooth="yes"/>
      <point x="211" y="159"/>
      <point x="223" y="164"/>
      <point x="234" y="175" type="curve" smooth="yes"/>
      <point x="321" y="262" type="line"/>
      <point x="389" y="213"/>
      <point x="477" y="183"/>
      <point x="585" y="183" type="curve" smooth="yes"/>
      <point x="694" y="183"/>
      <point x="781" y="212"/>
      <point x="849" y="263" type="curve"/>
      <point x="938" y="175" type="line" smooth="yes"/>
      <point x="948" y="165"/>
      <point x="959" y="159"/>
      <point x="970" y="159" type="curve" smooth="yes"/>
      <point x="998" y="159"/>
      <point x="1024" y="182"/>
      <point x="1024" y="211" type="curve" smooth="yes"/>
      <point x="1024" y="223"/>
      <point x="1020" y="236"/>
      <point x="1009" y="246" type="curve" smooth="yes"/>
      <point x="922" y="332" type="line"/>
      <point x="982" y="408"/>
      <point x="1013" y="504"/>
      <point x="1013" y="601" type="curve" smooth="yes"/>
      <point x="1013" y="696"/>
      <point x="984" y="790"/>
      <point x="924" y="866" type="curve"/>
      <point x="1009" y="950" type="line" smooth="yes"/>
      <point x="1020" y="961"/>
      <point x="1024" y="974"/>
      <point x="1024" y="985" type="curve" smooth="yes"/>
      <point x="1024" y="1013"/>
      <point x="1000" y="1037"/>
      <point x="973" y="1037" type="curve" smooth="yes"/>
      <point x="960" y="1037"/>
      <point x="948" y="1032"/>
      <point x="937" y="1021" type="curve" smooth="yes"/>
      <point x="853" y="937" type="line"/>
      <point x="785" y="988"/>
      <point x="696" y="1020"/>
      <point x="585" y="1020" type="curve" smooth="yes"/>
      <point x="473" y="1020"/>
      <point x="385" y="988"/>
      <point x="317" y="937" type="curve"/>
      <point x="234" y="1021" type="line" smooth="yes"/>
      <point x="223" y="1032"/>
      <point x="211" y="1037"/>
      <point x="198" y="1037" type="curve" smooth="yes"/>
      <point x="171" y="1037"/>
      <point x="147" y="1013"/>
      <point x="147" y="986" type="curve" smooth="yes"/>
      <point x="147" y="973"/>
      <point x="152" y="961"/>
      <point x="163" y="950" type="curve" smooth="yes"/>
      <point x="246" y="866" type="line"/>
      <point x="186" y="790"/>
      <point x="157" y="697"/>
      <point x="157" y="601" type="curve" smooth="yes"/>
      <point x="157" y="504"/>
      <point x="187" y="408"/>
      <point x="248" y="332" type="curve"/>
      <point x="163" y="246" type="line" smooth="yes"/>
      <point x="152" y="236"/>
      <point x="147" y="224"/>
      <point x="147" y="211" type="curve" smooth="yes"/>
      <point x="147" y="183"/>
      <point x="171" y="159"/>
    </contour>
    <contour>
      <point x="585" y="284" type="curve" smooth="yes"/>
      <point x="382" y="284"/>
      <point x="280" y="443"/>
      <point x="280" y="601" type="curve" smooth="yes"/>
      <point x="280" y="758"/>
      <point x="382" y="918"/>
      <point x="585" y="918" type="curve" smooth="yes"/>
      <point x="788" y="918"/>
      <point x="890" y="758"/>
      <point x="890" y="601" type="curve" smooth="yes"/>
      <point x="890" y="443"/>
      <point x="788" y="284"/>
    </contour>
  </outline>
</glyph>
<glyph name="yen" format="1">
  <advance width="1174"/>
  <unicode hex="00A5"/>
  <outline>
    <component base="Y"/>
    <contour>
      <point x="194" y="299" type="curve" smooth="yes"/>
      <point x="1046" y="299" type="line" smooth="yes"/>
      <point x="1087" y="299"/>
      <point x="1107" y="328"/>
      <point x="1107" y="359" type="curve" smooth="yes"/>
      <point x="1107" y="390"/>
      <point x="1087" y="420"/>
      <point x="1046" y="420" type="curve" smooth="yes"/>
      <point x="194" y="420" type="line" smooth="yes"/>
      <point x="153" y="420"/>
      <point x="134" y="390"/>
      <point x="134" y="361" type="curve" smooth="yes"/>
      <point x="134" y="330"/>
      <point x="154" y="299"/>
    </contour>
    <contour>
      <point x="194" y="545" type="curve" smooth="yes"/>
      <point x="1046" y="545" type="line" smooth="yes"/>
      <point x="1087" y="545"/>
      <point x="1107" y="574"/>
      <point x="1107" y="605" type="curve" smooth="yes"/>
      <point x="1107" y="636"/>
      <point x="1087" y="666"/>
      <point x="1046" y="666" type="curve" smooth="yes"/>
      <point x="194" y="666" type="line" smooth="yes"/>
      <point x="153" y="666"/>
      <point x="134" y="636"/>
      <point x="134" y="607" type="curve" smooth="yes"/>
      <point x="134" y="576"/>
      <point x="154" y="545"/>
    </contour>
  </outline>
</glyph>
<glyph name="section" format="1">
  <advance width="1158"/>
  <unicode hex="00A7"/>
  <outline>
    <contour>
      <point x="529" y="-32" type="curve" smooth="yes"/>
      <point x="731" y="-32"/>
      <point x="927" y="65"/>
      <point x="927" y="283" type="curve" smooth="yes"/>
      <point x="927" y="424"/>
      <point x="827" y="493"/>
      <point x="705" y="541" type="curve"/>
      <point x="808" y="585"/>
      <point x="922" y="674"/>
      <point x="922" y="794" type="curve" smooth="yes"/>
      <point x="922" y="1060"/>
      <point x="413" y="1029"/>
      <point x="413" y="1235" type="curve" smooth="yes"/>
      <point x="413" y="1356"/>
      <point x="544" y="1387"/>
      <point x="644" y="1387" type="curve" smooth="yes"/>
      <point x="705" y="1387"/>
      <point x="813" y="1350"/>
      <point x="826" y="1353" type="curve"/>
      <point x="872" y="1355"/>
      <point x="889" y="1388"/>
      <point x="889" y="1418" type="curve" smooth="yes"/>
      <point x="889" y="1440"/>
      <point x="876" y="1462"/>
      <point x="847" y="1470" type="curve" smooth="yes"/>
      <point x="777" y="1491"/>
      <point x="699" y="1510"/>
      <point x="622" y="1510" type="curve" smooth="yes"/>
      <point x="433" y="1510"/>
      <point x="252" y="1435"/>
      <point x="252" y="1230" type="curve" smooth="yes"/>
      <point x="252" y="1095"/>
      <point x="339" y="1045"/>
      <point x="444" y="983" type="curve"/>
      <point x="339" y="940"/>
      <point x="223" y="853"/>
      <point x="223" y="733" type="curve" smooth="yes"/>
      <point x="223" y="417"/>
      <point x="766" y="498"/>
      <point x="766" y="283" type="curve" smooth="yes"/>
      <point x="766" y="142"/>
      <point x="629" y="92"/>
      <point x="509" y="92" type="curve" smooth="yes"/>
      <point x="416" y="92"/>
      <point x="349" y="104"/>
      <point x="294" y="125" type="curve" smooth="yes"/>
      <point x="228" y="144"/>
      <point x="211" y="104"/>
      <point x="211" y="68" type="curve" smooth="yes"/>
      <point x="211" y="46"/>
      <point x="223" y="24"/>
      <point x="252" y="13" type="curve" smooth="yes"/>
      <point x="337" y="-18"/>
      <point x="436" y="-32"/>
    </contour>
    <contour>
      <point x="581" y="581" type="curve"/>
      <point x="506" y="612"/>
      <point x="374" y="655"/>
      <point x="374" y="750" type="curve" smooth="yes"/>
      <point x="374" y="854"/>
      <point x="462" y="889"/>
      <point x="542" y="940" type="curve"/>
      <point x="622" y="897"/>
      <point x="771" y="873"/>
      <point x="771" y="769" type="curve" smooth="yes"/>
      <point x="771" y="668"/>
      <point x="660" y="626"/>
    </contour>
  </outline>
</glyph>
<glyph name="copyright" format="1">
  <advance width="1650"/>
  <unicode hex="00A9"/>
  <outline>
    <contour>
      <point x="845" y="401" type="curve" smooth="yes"/>
      <point x="923" y="401"/>
      <point x="1100" y="439"/>
      <point x="1100" y="510" type="curve" smooth="yes"/>
      <point x="1100" y="533"/>
      <point x="1083" y="552"/>
      <point x="1060" y="552" type="curve" smooth="yes"/>
      <point x="1050" y="552"/>
      <point x="1044" y="550"/>
      <point x="1040" y="547" type="curve"/>
      <point x="981" y="515"/>
      <point x="924" y="496"/>
      <point x="864" y="496" type="curve" smooth="yes"/>
      <point x="711" y="496"/>
      <point x="575" y="604"/>
      <point x="575" y="800" type="curve" smooth="yes"/>
      <point x="575" y="1001"/>
      <point x="703" y="1092"/>
      <point x="854" y="1092" type="curve" smooth="yes"/>
      <point x="918" y="1092"/>
      <point x="989" y="1075"/>
      <point x="1050" y="1041" type="curve"/>
      <point x="1058" y="1038"/>
      <point x="1064" y="1036"/>
      <point x="1069" y="1036" type="curve" smooth="yes"/>
      <point x="1095" y="1036"/>
      <point x="1113" y="1061"/>
      <point x="1113" y="1086" type="curve" smooth="yes"/>
      <point x="1113" y="1153"/>
      <point x="915" y="1188"/>
      <point x="842" y="1188" type="curve" smooth="yes"/>
      <point x="638" y="1188"/>
      <point x="457" y="1057"/>
      <point x="457" y="798" type="curve" smooth="yes"/>
      <point x="457" y="540"/>
      <point x="645" y="401"/>
    </contour>
    <contour>
      <point x="834" y="242" type="curve" smooth="yes"/>
      <point x="501" y="242"/>
      <point x="260" y="472"/>
      <point x="260" y="792" type="curve" smooth="yes"/>
      <point x="260" y="1110"/>
      <point x="501" y="1341"/>
      <point x="834" y="1341" type="curve" smooth="yes"/>
      <point x="1165" y="1341"/>
      <point x="1403" y="1110"/>
      <point x="1403" y="792" type="curve" smooth="yes"/>
      <point x="1403" y="472"/>
      <point x="1165" y="242"/>
    </contour>
    <contour>
      <point x="834" y="132" type="curve" smooth="yes"/>
      <point x="1212" y="132"/>
      <point x="1519" y="428"/>
      <point x="1519" y="792" type="curve" smooth="yes"/>
      <point x="1519" y="1155"/>
      <point x="1212" y="1452"/>
      <point x="834" y="1452" type="curve" smooth="yes"/>
      <point x="453" y="1452"/>
      <point x="144" y="1155"/>
      <point x="144" y="792" type="curve" smooth="yes"/>
      <point x="144" y="428"/>
      <point x="453" y="132"/>
    </contour>
  </outline>
</glyph>
<glyph name="guillemotleft" format="1">
  <advance width="1156"/>
  <unicode hex="00AB"/>
  <outline>
    <contour>
      <point x="472" y="117" type="curve" smooth="yes"/>
      <point x="502" y="117"/>
      <point x="527" y="139"/>
      <point x="527" y="169" type="curve" smooth="yes"/>
      <point x="527" y="178"/>
      <point x="525" y="187"/>
      <point x="522" y="194" type="curve" smooth="yes"/>
      <point x="357" y="544" type="line"/>
      <point x="522" y="894" type="line" smooth="yes"/>
      <point x="526" y="902"/>
      <point x="527" y="911"/>
      <point x="527" y="917" type="curve" smooth="yes"/>
      <point x="527" y="948"/>
      <point x="502" y="970"/>
      <point x="472" y="970" type="curve" smooth="yes"/>
      <point x="448" y="970"/>
      <point x="422" y="957"/>
      <point x="405" y="924" type="curve" smooth="yes"/>
      <point x="194" y="544" type="line"/>
      <point x="405" y="163" type="line" smooth="yes"/>
      <point x="424" y="129"/>
      <point x="448" y="117"/>
    </contour>
    <contour>
      <point x="855" y="117" type="curve" smooth="yes"/>
      <point x="886" y="117"/>
      <point x="911" y="140"/>
      <point x="911" y="170" type="curve" smooth="yes"/>
      <point x="911" y="179"/>
      <point x="909" y="187"/>
      <point x="906" y="194" type="curve" smooth="yes"/>
      <point x="741" y="544" type="line"/>
      <point x="907" y="894" type="line" smooth="yes"/>
      <point x="909" y="901"/>
      <point x="911" y="909"/>
      <point x="911" y="917" type="curve" smooth="yes"/>
      <point x="911" y="948"/>
      <point x="886" y="970"/>
      <point x="855" y="970" type="curve" smooth="yes"/>
      <point x="833" y="970"/>
      <point x="807" y="958"/>
      <point x="789" y="924" type="curve" smooth="yes"/>
      <point x="577" y="544" type="line"/>
      <point x="789" y="163" type="line" smooth="yes"/>
      <point x="807" y="129"/>
      <point x="833" y="117"/>
    </contour>
  </outline>
</glyph>
<glyph name="macron" format="1">
  <advance width="569"/>
  <unicode hex="00AF"/>
  <outline>
    <contour>
      <point x="286" y="1040" type="move" name="_top"/>
    </contour>
    <contour>
      <point x="289" y="1299" type="move" name="_mid"/>
    </contour>
    <contour>
      <point x="48" y="1251" type="curve" smooth="yes"/>
      <point x="527" y="1251" type="line" smooth="yes"/>
      <point x="569" y="1251"/>
      <point x="589" y="1272"/>
      <point x="589" y="1306" type="curve" smooth="yes"/>
      <point x="589" y="1338"/>
      <point x="569" y="1362"/>
      <point x="527" y="1362" type="curve" smooth="yes"/>
      <point x="48" y="1362" type="line" smooth="yes"/>
      <point x="4" y="1362"/>
      <point x="-17" y="1338"/>
      <point x="-17" y="1306" type="curve" smooth="yes"/>
      <point x="-17" y="1272"/>
      <point x="4" y="1251"/>
    </contour>
  </outline>
</glyph>
<glyph name="twosuperior" format="1">
  <advance width="745"/>
  <unicode hex="00B2"/>
  <outline>
    <contour>
      <point x="163" y="566" type="curve" smooth="yes"/>
      <point x="595" y="566" type="line" smooth="yes"/>
      <point x="622" y="566"/>
      <point x="636" y="587"/>
      <point x="636" y="607" type="curve" smooth="yes"/>
      <point x="636" y="628"/>
      <point x="621" y="650"/>
      <point x="595" y="650" type="curve" smooth="yes"/>
      <point x="209" y="650" type="line"/>
      <point x="359" y="781"/>
      <point x="627" y="1018"/>
      <point x="627" y="1202" type="curve" smooth="yes"/>
      <point x="627" y="1335"/>
      <point x="509" y="1403"/>
      <point x="377" y="1403" type="curve" smooth="yes"/>
      <point x="281" y="1403"/>
      <point x="140" y="1345"/>
      <point x="140" y="1293" type="curve" smooth="yes"/>
      <point x="140" y="1275"/>
      <point x="156" y="1259"/>
      <point x="178" y="1259" type="curve" smooth="yes"/>
      <point x="189" y="1259"/>
      <point x="200" y="1262"/>
      <point x="211" y="1269" type="curve" smooth="yes"/>
      <point x="250" y="1292"/>
      <point x="310" y="1318"/>
      <point x="369" y="1318" type="curve" smooth="yes"/>
      <point x="446" y="1318"/>
      <point x="522" y="1275"/>
      <point x="522" y="1194" type="curve" smooth="yes"/>
      <point x="522" y="1052"/>
      <point x="244" y="794"/>
      <point x="123" y="686" type="curve"/>
      <point x="100" y="664"/>
      <point x="90" y="642"/>
      <point x="90" y="618" type="curve" smooth="yes"/>
      <point x="90" y="588"/>
      <point x="112" y="566"/>
    </contour>
  </outline>
</glyph>
<glyph name="paragraph" format="1">
  <advance width="1325"/>
  <unicode hex="00B6"/>
  <outline>
    <contour>
      <point x="599" y="-272" type="curve" smooth="yes"/>
      <point x="635" y="-272"/>
      <point x="672" y="-249"/>
      <point x="672" y="-202" type="curve" smooth="yes"/>
      <point x="672" y="1299" type="line"/>
      <point x="903" y="1299" type="line"/>
      <point x="903" y="-202" type="line" smooth="yes"/>
      <point x="903" y="-249"/>
      <point x="940" y="-272"/>
      <point x="976" y="-272" type="curve" smooth="yes"/>
      <point x="1013" y="-272"/>
      <point x="1050" y="-249"/>
      <point x="1050" y="-202" type="curve" smooth="yes"/>
      <point x="1050" y="1315" type="line" smooth="yes"/>
      <point x="1050" y="1369"/>
      <point x="1041" y="1426"/>
      <point x="942" y="1426" type="curve" smooth="yes"/>
      <point x="582" y="1426" type="line" smooth="yes"/>
      <point x="296" y="1426"/>
      <point x="129" y="1285"/>
      <point x="129" y="1044" type="curve" smooth="yes"/>
      <point x="129" y="841"/>
      <point x="309" y="673"/>
      <point x="525" y="673" type="curve"/>
      <point x="525" y="-202" type="line" smooth="yes"/>
      <point x="525" y="-249"/>
      <point x="562" y="-272"/>
    </contour>
  </outline>
</glyph>
<glyph name="cedilla" format="1">
  <advance width="569"/>
  <unicode hex="00B8"/>
  <outline>
    <contour>
      <point x="303" y="-387" type="curve" smooth="yes"/>
      <point x="392" y="-387"/>
      <point x="486" y="-340"/>
      <point x="486" y="-243" type="curve" smooth="yes"/>
      <point x="486" y="-128"/>
      <point x="395" y="-101"/>
      <point x="299" y="-101" type="curve" smooth="yes"/>
      <point x="290" y="-101"/>
      <point x="284" y="-102"/>
      <point x="276" y="-102" type="curve"/>
      <point x="309" y="10" type="line"/>
      <point x="255" y="10" type="line"/>
      <point x="211" y="-122" type="line" smooth="yes"/>
      <point x="209" y="-128"/>
      <point x="208" y="-132"/>
      <point x="208" y="-137" type="curve" smooth="yes"/>
      <point x="208" y="-153"/>
      <point x="218" y="-166"/>
      <point x="241" y="-166" type="curve" smooth="yes"/>
      <point x="244" y="-166"/>
      <point x="249" y="-165"/>
      <point x="252" y="-165" type="curve" smooth="yes"/>
      <point x="308" y="-165"/>
      <point x="365" y="-185"/>
      <point x="365" y="-238" type="curve" smooth="yes"/>
      <point x="365" y="-292"/>
      <point x="343" y="-322"/>
      <point x="272" y="-322" type="curve" smooth="yes"/>
      <point x="211" y="-322"/>
      <point x="162" y="-306"/>
      <point x="110" y="-287" type="curve" smooth="yes"/>
      <point x="105" y="-285"/>
      <point x="100" y="-284"/>
      <point x="97" y="-284" type="curve" smooth="yes"/>
      <point x="82" y="-284"/>
      <point x="73" y="-299"/>
      <point x="73" y="-314" type="curve" smooth="yes"/>
      <point x="73" y="-355"/>
      <point x="192" y="-387"/>
    </contour>
  </outline>
</glyph>
<glyph name="onesuperior" format="1">
  <advance width="688"/>
  <unicode hex="00B9"/>
  <outline>
    <contour>
      <point x="426" y="566" type="curve" smooth="yes"/>
      <point x="450" y="566"/>
      <point x="474" y="582"/>
      <point x="474" y="612" type="curve" smooth="yes"/>
      <point x="474" y="1331" type="line" smooth="yes"/>
      <point x="474" y="1365"/>
      <point x="453" y="1380"/>
      <point x="430" y="1380" type="curve" smooth="yes"/>
      <point x="420" y="1380"/>
      <point x="411" y="1377"/>
      <point x="402" y="1372" type="curve" smooth="yes"/>
      <point x="204" y="1246" type="line" smooth="yes"/>
      <point x="193" y="1239"/>
      <point x="187" y="1229"/>
      <point x="187" y="1217" type="curve" smooth="yes"/>
      <point x="187" y="1198"/>
      <point x="203" y="1178"/>
      <point x="225" y="1178" type="curve" smooth="yes"/>
      <point x="232" y="1178"/>
      <point x="239" y="1180"/>
      <point x="246" y="1185" type="curve" smooth="yes"/>
      <point x="379" y="1271" type="line"/>
      <point x="379" y="612" type="line" smooth="yes"/>
      <point x="379" y="582"/>
      <point x="402" y="566"/>
    </contour>
  </outline>
</glyph>
<glyph name="onequarter" format="1">
  <advance width="1539"/>
  <unicode hex="00BC"/>
  <outline>
    <contour>
      <point x="1281" y="1" type="curve" smooth="yes"/>
      <point x="1305" y="1"/>
      <point x="1328" y="17"/>
      <point x="1328" y="48" type="curve" smooth="yes"/>
      <point x="1328" y="190" type="line"/>
      <point x="1422" y="190" type="line" smooth="yes"/>
      <point x="1449" y="190"/>
      <point x="1461" y="207"/>
      <point x="1461" y="226" type="curve" smooth="yes"/>
      <point x="1461" y="245"/>
      <point x="1447" y="261"/>
      <point x="1422" y="261" type="curve" smooth="yes"/>
      <point x="1328" y="261" type="line"/>
      <point x="1328" y="767" type="line" smooth="yes"/>
      <point x="1328" y="818"/>
      <point x="1298" y="840"/>
      <point x="1259" y="840" type="curve" smooth="yes"/>
      <point x="1229" y="840"/>
      <point x="1199" y="826"/>
      <point x="1179" y="792" type="curve"/>
      <point x="842" y="281" type="line" smooth="yes"/>
      <point x="834" y="269"/>
      <point x="830" y="257"/>
      <point x="830" y="244" type="curve" smooth="yes"/>
      <point x="830" y="215"/>
      <point x="851" y="190"/>
      <point x="886" y="190" type="curve" smooth="yes"/>
      <point x="1234" y="190" type="line"/>
      <point x="1234" y="48" type="line" smooth="yes"/>
      <point x="1234" y="17"/>
      <point x="1257" y="1"/>
    </contour>
    <contour>
      <point x="393" y="566" type="curve" smooth="yes"/>
      <point x="417" y="566"/>
      <point x="442" y="582"/>
      <point x="442" y="612" type="curve" smooth="yes"/>
      <point x="442" y="1331" type="line" smooth="yes"/>
      <point x="442" y="1365"/>
      <point x="419" y="1380"/>
      <point x="397" y="1380" type="curve" smooth="yes"/>
      <point x="387" y="1380"/>
      <point x="378" y="1377"/>
      <point x="369" y="1372" type="curve" smooth="yes"/>
      <point x="170" y="1246" type="line" smooth="yes"/>
      <point x="160" y="1239"/>
      <point x="154" y="1229"/>
      <point x="154" y="1217" type="curve" smooth="yes"/>
      <point x="154" y="1198"/>
      <point x="169" y="1178"/>
      <point x="192" y="1178" type="curve" smooth="yes"/>
      <point x="199" y="1178"/>
      <point x="206" y="1180"/>
      <point x="213" y="1185" type="curve" smooth="yes"/>
      <point x="345" y="1271" type="line"/>
      <point x="345" y="612" type="line" smooth="yes"/>
      <point x="345" y="582"/>
      <point x="369" y="566"/>
    </contour>
    <contour>
      <point x="507" y="-88" type="curve" smooth="yes"/>
      <point x="530" y="-88"/>
      <point x="551" y="-76"/>
      <point x="560" y="-49" type="curve" smooth="yes"/>
      <point x="1038" y="1358" type="line" smooth="yes"/>
      <point x="1041" y="1366"/>
      <point x="1042" y="1373"/>
      <point x="1042" y="1380" type="curve" smooth="yes"/>
      <point x="1042" y="1413"/>
      <point x="1014" y="1432"/>
      <point x="986" y="1432" type="curve" smooth="yes"/>
      <point x="963" y="1432"/>
      <point x="940" y="1419"/>
      <point x="931" y="1392" type="curve" smooth="yes"/>
      <point x="456" y="-14" type="line" smooth="yes"/>
      <point x="453" y="-21"/>
      <point x="452" y="-29"/>
      <point x="452" y="-36" type="curve" smooth="yes"/>
      <point x="452" y="-69"/>
      <point x="480" y="-88"/>
    </contour>
    <contour>
      <point x="918" y="262" type="line"/>
      <point x="1234" y="746" type="line"/>
      <point x="1234" y="262" type="line"/>
    </contour>
  </outline>
</glyph>
<glyph name="onehalf" format="1">
  <advance width="1556"/>
  <unicode hex="00BD"/>
  <outline>
    <contour>
      <point x="971" y="0" type="curve" smooth="yes"/>
      <point x="1403" y="0" type="line" smooth="yes"/>
      <point x="1431" y="0"/>
      <point x="1444" y="21"/>
      <point x="1444" y="41" type="curve" smooth="yes"/>
      <point x="1444" y="62"/>
      <point x="1430" y="84"/>
      <point x="1403" y="84" type="curve" smooth="yes"/>
      <point x="1018" y="84" type="line"/>
      <point x="1167" y="217"/>
      <point x="1435" y="452"/>
      <point x="1435" y="637" type="curve" smooth="yes"/>
      <point x="1435" y="769"/>
      <point x="1317" y="837"/>
      <point x="1185" y="837" type="curve" smooth="yes"/>
      <point x="1089" y="837"/>
      <point x="949" y="778"/>
      <point x="949" y="727" type="curve" smooth="yes"/>
      <point x="949" y="709"/>
      <point x="964" y="693"/>
      <point x="986" y="693" type="curve" smooth="yes"/>
      <point x="997" y="693"/>
      <point x="1008" y="696"/>
      <point x="1020" y="703" type="curve" smooth="yes"/>
      <point x="1058" y="726"/>
      <point x="1118" y="752"/>
      <point x="1178" y="752" type="curve" smooth="yes"/>
      <point x="1255" y="752"/>
      <point x="1330" y="710"/>
      <point x="1330" y="630" type="curve" smooth="yes"/>
      <point x="1330" y="484"/>
      <point x="1049" y="232"/>
      <point x="933" y="120" type="curve" smooth="yes"/>
      <point x="911" y="100"/>
      <point x="900" y="75"/>
      <point x="900" y="51" type="curve" smooth="yes"/>
      <point x="900" y="23"/>
      <point x="920" y="0"/>
    </contour>
    <contour>
      <point x="393" y="566" type="curve" smooth="yes"/>
      <point x="417" y="566"/>
      <point x="442" y="582"/>
      <point x="442" y="612" type="curve" smooth="yes"/>
      <point x="442" y="1331" type="line" smooth="yes"/>
      <point x="442" y="1365"/>
      <point x="419" y="1380"/>
      <point x="397" y="1380" type="curve" smooth="yes"/>
      <point x="387" y="1380"/>
      <point x="378" y="1377"/>
      <point x="369" y="1372" type="curve" smooth="yes"/>
      <point x="170" y="1246" type="line" smooth="yes"/>
      <point x="160" y="1239"/>
      <point x="154" y="1229"/>
      <point x="154" y="1217" type="curve" smooth="yes"/>
      <point x="154" y="1198"/>
      <point x="169" y="1178"/>
      <point x="192" y="1178" type="curve" smooth="yes"/>
      <point x="199" y="1178"/>
      <point x="206" y="1180"/>
      <point x="213" y="1185" type="curve" smooth="yes"/>
      <point x="345" y="1271" type="line"/>
      <point x="345" y="612" type="line" smooth="yes"/>
      <point x="345" y="582"/>
      <point x="369" y="566"/>
    </contour>
    <contour>
      <point x="505" y="-88" type="curve" smooth="yes"/>
      <point x="528" y="-88"/>
      <point x="549" y="-76"/>
      <point x="558" y="-49" type="curve" smooth="yes"/>
      <point x="1036" y="1358" type="line" smooth="yes"/>
      <point x="1039" y="1366"/>
      <point x="1040" y="1373"/>
      <point x="1040" y="1380" type="curve" smooth="yes"/>
      <point x="1040" y="1413"/>
      <point x="1012" y="1432"/>
      <point x="984" y="1432" type="curve" smooth="yes"/>
      <point x="961" y="1432"/>
      <point x="938" y="1419"/>
      <point x="929" y="1392" type="curve" smooth="yes"/>
      <point x="454" y="-14" type="line" smooth="yes"/>
      <point x="451" y="-21"/>
      <point x="450" y="-29"/>
      <point x="450" y="-36" type="curve" smooth="yes"/>
      <point x="450" y="-69"/>
      <point x="478" y="-88"/>
    </contour>
  </outline>
</glyph>
<glyph name="threequarters" format="1">
  <advance width="1582"/>
  <unicode hex="00BE"/>
  <outline>
    <contour>
      <point x="291" y="538" type="curve" smooth="yes"/>
      <point x="431" y="538"/>
      <point x="564" y="608"/>
      <point x="564" y="767" type="curve" smooth="yes"/>
      <point x="564" y="879"/>
      <point x="489" y="959"/>
      <point x="387" y="983" type="curve"/>
      <point x="493" y="993"/>
      <point x="549" y="1072"/>
      <point x="549" y="1175" type="curve" smooth="yes"/>
      <point x="549" y="1332"/>
      <point x="414" y="1401"/>
      <point x="278" y="1401" type="curve" smooth="yes"/>
      <point x="200" y="1401"/>
      <point x="54" y="1372"/>
      <point x="54" y="1320" type="curve" smooth="yes"/>
      <point x="54" y="1298"/>
      <point x="68" y="1279"/>
      <point x="94" y="1279" type="curve" smooth="yes"/>
      <point x="113" y="1279"/>
      <point x="202" y="1320"/>
      <point x="287" y="1320" type="curve" smooth="yes"/>
      <point x="377" y="1320"/>
      <point x="455" y="1268"/>
      <point x="455" y="1175" type="curve" smooth="yes"/>
      <point x="455" y="1067"/>
      <point x="362" y="1022"/>
      <point x="264" y="1019" type="curve" smooth="yes"/>
      <point x="229" y="1018" type="line" smooth="yes"/>
      <point x="203" y="1017"/>
      <point x="191" y="999"/>
      <point x="191" y="979" type="curve" smooth="yes"/>
      <point x="191" y="960"/>
      <point x="203" y="941"/>
      <point x="229" y="941" type="curve" smooth="yes"/>
      <point x="274" y="941" type="line" smooth="yes"/>
      <point x="374" y="941"/>
      <point x="469" y="877"/>
      <point x="469" y="765" type="curve" smooth="yes"/>
      <point x="469" y="671"/>
      <point x="401" y="619"/>
      <point x="294" y="619" type="curve" smooth="yes"/>
      <point x="227" y="619"/>
      <point x="162" y="636"/>
      <point x="123" y="658" type="curve" smooth="yes"/>
      <point x="116" y="661"/>
      <point x="109" y="662"/>
      <point x="103" y="662" type="curve" smooth="yes"/>
      <point x="79" y="662"/>
      <point x="65" y="642"/>
      <point x="65" y="623" type="curve" smooth="yes"/>
      <point x="65" y="573"/>
      <point x="213" y="538"/>
    </contour>
    <contour>
      <point x="1281" y="1" type="curve" smooth="yes"/>
      <point x="1304" y="1"/>
      <point x="1327" y="16"/>
      <point x="1327" y="46" type="curve" smooth="yes"/>
      <point x="1327" y="191" type="line"/>
      <point x="1423" y="191" type="line" smooth="yes"/>
      <point x="1449" y="191"/>
      <point x="1460" y="207"/>
      <point x="1460" y="225" type="curve" smooth="yes"/>
      <point x="1460" y="244"/>
      <point x="1446" y="260"/>
      <point x="1423" y="260" type="curve" smooth="yes"/>
      <point x="1327" y="260" type="line"/>
      <point x="1327" y="772" type="line" smooth="yes"/>
      <point x="1327" y="820"/>
      <point x="1297" y="840"/>
      <point x="1260" y="840" type="curve" smooth="yes"/>
      <point x="1231" y="840"/>
      <point x="1204" y="827"/>
      <point x="1186" y="797" type="curve"/>
      <point x="843" y="280" type="line" smooth="yes"/>
      <point x="835" y="269"/>
      <point x="831" y="257"/>
      <point x="831" y="244" type="curve" smooth="yes"/>
      <point x="831" y="216"/>
      <point x="853" y="191"/>
      <point x="886" y="191" type="curve" smooth="yes"/>
      <point x="1235" y="191" type="line"/>
      <point x="1235" y="46" type="line" smooth="yes"/>
      <point x="1235" y="16"/>
      <point x="1258" y="1"/>
    </contour>
    <contour>
      <point x="527" y="-90" type="curve" smooth="yes"/>
      <point x="549" y="-90"/>
      <point x="569" y="-78"/>
      <point x="577" y="-52" type="curve" smooth="yes"/>
      <point x="1055" y="1359" type="line" smooth="yes"/>
      <point x="1058" y="1365"/>
      <point x="1059" y="1373"/>
      <point x="1059" y="1380" type="curve" smooth="yes"/>
      <point x="1059" y="1411"/>
      <point x="1033" y="1430"/>
      <point x="1007" y="1430" type="curve" smooth="yes"/>
      <point x="984" y="1430"/>
      <point x="962" y="1417"/>
      <point x="954" y="1391" type="curve" smooth="yes"/>
      <point x="478" y="-19" type="line" smooth="yes"/>
      <point x="475" y="-26"/>
      <point x="474" y="-33"/>
      <point x="474" y="-40" type="curve" smooth="yes"/>
      <point x="474" y="-71"/>
      <point x="500" y="-90"/>
    </contour>
    <contour>
      <point x="914" y="260" type="line"/>
      <point x="1235" y="750" type="line"/>
      <point x="1235" y="260" type="line"/>
    </contour>
  </outline>
</glyph>
<glyph name="AE" format="1">
  <advance width="1962"/>
  <unicode hex="00C6"/>
  <outline>
    <contour>
      <point x="1286" y="1454" type="move" name="top"/>
    </contour>
    <contour>
      <point x="1252" y="0" type="curve" smooth="yes"/>
      <point x="1853" y="0" type="line" smooth="yes"/>
      <point x="1898" y="0"/>
      <point x="1917" y="30"/>
      <point x="1917" y="62" type="curve" smooth="yes"/>
      <point x="1917" y="100"/>
      <point x="1888" y="143"/>
      <point x="1835" y="143" type="curve" smooth="yes"/>
      <point x="1319" y="143" type="line"/>
      <point x="1233" y="663" type="line"/>
      <point x="1802" y="663" type="line" smooth="yes"/>
      <point x="1847" y="663"/>
      <point x="1867" y="692"/>
      <point x="1867" y="725" type="curve" smooth="yes"/>
      <point x="1867" y="764"/>
      <point x="1837" y="805"/>
      <point x="1785" y="805" type="curve" smooth="yes"/>
      <point x="1213" y="805" type="line"/>
      <point x="1136" y="1283" type="line"/>
      <point x="1834" y="1283" type="line" smooth="yes"/>
      <point x="1878" y="1283"/>
      <point x="1898" y="1312"/>
      <point x="1898" y="1345" type="curve" smooth="yes"/>
      <point x="1898" y="1383"/>
      <point x="1868" y="1426"/>
      <point x="1816" y="1426" type="curve" smooth="yes"/>
      <point x="998" y="1426" type="line" smooth="yes"/>
      <point x="936" y="1426"/>
      <point x="883" y="1409"/>
      <point x="808" y="1280" type="curve"/>
      <point x="66" y="106" type="line" smooth="yes"/>
      <point x="56" y="89"/>
      <point x="51" y="74"/>
      <point x="52" y="62" type="curve" smooth="yes"/>
      <point x="52" y="24"/>
      <point x="86" y="-1"/>
      <point x="124" y="-1" type="curve" smooth="yes"/>
      <point x="155" y="-1"/>
      <point x="187" y="14"/>
      <point x="208" y="52" type="curve"/>
      <point x="414" y="374" type="line"/>
      <point x="1108" y="374" type="line"/>
      <point x="1163" y="52" type="line" smooth="yes"/>
      <point x="1170" y="8"/>
      <point x="1211" y="0"/>
    </contour>
    <contour>
      <point x="493" y="507" type="line"/>
      <point x="964" y="1294" type="line"/>
      <point x="967" y="1294" type="line"/>
      <point x="1091" y="507" type="line"/>
    </contour>
  </outline>
</glyph>
<glyph name="multiply" format="1">
  <advance width="1341"/>
  <unicode hex="00D7"/>
  <outline>
    <contour>
      <point x="359" y="116" type="curve" smooth="yes"/>
      <point x="376" y="116"/>
      <point x="392" y="123"/>
      <point x="405" y="136" type="curve" smooth="yes"/>
      <point x="669" y="401" type="line"/>
      <point x="924" y="147" type="line" smooth="yes"/>
      <point x="937" y="134"/>
      <point x="952" y="127"/>
      <point x="968" y="127" type="curve" smooth="yes"/>
      <point x="1007" y="127"/>
      <point x="1039" y="162"/>
      <point x="1039" y="201" type="curve" smooth="yes"/>
      <point x="1039" y="215"/>
      <point x="1034" y="231"/>
      <point x="1021" y="244" type="curve" smooth="yes"/>
      <point x="767" y="498" type="line"/>
      <point x="1031" y="764" type="line" smooth="yes"/>
      <point x="1046" y="779"/>
      <point x="1052" y="795"/>
      <point x="1052" y="810" type="curve" smooth="yes"/>
      <point x="1052" y="846"/>
      <point x="1020" y="878"/>
      <point x="984" y="878" type="curve" smooth="yes"/>
      <point x="967" y="878"/>
      <point x="951" y="871"/>
      <point x="937" y="857" type="curve" smooth="yes"/>
      <point x="673" y="592" type="line"/>
      <point x="417" y="848" type="line" smooth="yes"/>
      <point x="404" y="861"/>
      <point x="389" y="867"/>
      <point x="372" y="867" type="curve" smooth="yes"/>
      <point x="334" y="867"/>
      <point x="300" y="832"/>
      <point x="300" y="795" type="curve" smooth="yes"/>
      <point x="300" y="778"/>
      <point x="307" y="763"/>
      <point x="320" y="751" type="curve" smooth="yes"/>
      <point x="575" y="495" type="line"/>
      <point x="311" y="230" type="line" smooth="yes"/>
      <point x="296" y="215"/>
      <point x="290" y="198"/>
      <point x="290" y="183" type="curve" smooth="yes"/>
      <point x="290" y="148"/>
      <point x="323" y="116"/>
    </contour>
  </outline>
</glyph>
<glyph name="ae" format="1">
  <advance width="1693"/>
  <unicode hex="00E6"/>
  <outline>
    <contour>
      <point x="854" y="987" type="move" name="top"/>
    </contour>
    <contour>
      <point x="418" y="-29" type="curve" smooth="yes"/>
      <point x="559" y="-29"/>
      <point x="735" y="35"/>
      <point x="813" y="202" type="curve"/>
      <point x="876" y="65"/>
      <point x="987" y="-29"/>
      <point x="1153" y="-29" type="curve" smooth="yes"/>
      <point x="1342" y="-29"/>
      <point x="1546" y="74"/>
      <point x="1546" y="162" type="curve" smooth="yes"/>
      <point x="1546" y="189"/>
      <point x="1526" y="210"/>
      <point x="1498" y="210" type="curve" smooth="yes"/>
      <point x="1486" y="210"/>
      <point x="1472" y="206"/>
      <point x="1456" y="194" type="curve" smooth="yes"/>
      <point x="1394" y="144"/>
      <point x="1292" y="92"/>
      <point x="1194" y="92" type="curve" smooth="yes"/>
      <point x="980" y="92"/>
      <point x="898" y="259"/>
      <point x="895" y="464" type="curve"/>
      <point x="1522" y="464" type="line" smooth="yes"/>
      <point x="1567" y="464"/>
      <point x="1584" y="495"/>
      <point x="1584" y="525" type="curve"/>
      <point x="1575" y="802"/>
      <point x="1455" y="1019"/>
      <point x="1170" y="1019" type="curve" smooth="yes"/>
      <point x="1021" y="1019"/>
      <point x="910" y="945"/>
      <point x="838" y="836" type="curve"/>
      <point x="787" y="963"/>
      <point x="676" y="1019"/>
      <point x="512" y="1019" type="curve" smooth="yes"/>
      <point x="361" y="1019"/>
      <point x="232" y="974"/>
      <point x="148" y="896" type="curve" smooth="yes"/>
      <point x="134" y="883"/>
      <point x="128" y="869"/>
      <point x="128" y="853" type="curve" smooth="yes"/>
      <point x="128" y="823"/>
      <point x="153" y="797"/>
      <point x="184" y="797" type="curve" smooth="yes"/>
      <point x="195" y="797"/>
      <point x="206" y="801"/>
      <point x="220" y="809" type="curve" smooth="yes"/>
      <point x="300" y="859"/>
      <point x="369" y="897"/>
      <point x="508" y="897" type="curve" smooth="yes"/>
      <point x="647" y="897"/>
      <point x="741" y="848"/>
      <point x="741" y="692" type="curve" smooth="yes"/>
      <point x="741" y="607" type="line"/>
      <point x="703" y="608"/>
      <point x="663" y="609"/>
      <point x="626" y="611" type="curve" smooth="yes"/>
      <point x="298" y="611"/>
      <point x="71" y="521"/>
      <point x="71" y="276" type="curve" smooth="yes"/>
      <point x="71" y="84"/>
      <point x="222" y="-29"/>
    </contour>
    <contour>
      <point x="443" y="87" type="curve"/>
      <point x="323" y="90"/>
      <point x="223" y="150"/>
      <point x="223" y="278" type="curve" smooth="yes"/>
      <point x="223" y="520"/>
      <point x="562" y="484"/>
      <point x="740" y="493" type="curve"/>
      <point x="740" y="396" type="line"/>
      <point x="732" y="191"/>
      <point x="603" y="90"/>
    </contour>
    <contour>
      <point x="898" y="577" type="line"/>
      <point x="912" y="747"/>
      <point x="1001" y="902"/>
      <point x="1172" y="902" type="curve" smooth="yes"/>
      <point x="1344" y="902"/>
      <point x="1424" y="763"/>
      <point x="1437" y="577" type="curve"/>
    </contour>
  </outline>
</glyph>
<glyph name="eth" format="1">
  <advance width="1167"/>
  <unicode hex="00F0"/>
  <outline>
    <contour>
      <point x="555" y="-33" type="curve" smooth="yes"/>
      <point x="955" y="-33"/>
      <point x="1078" y="279"/>
      <point x="1078" y="618" type="curve" smooth="yes"/>
      <point x="1078" y="750"/>
      <point x="1065" y="903"/>
      <point x="1031" y="1052" type="curve"/>
      <point x="1165" y="1052" type="line" smooth="yes"/>
      <point x="1205" y="1052"/>
      <point x="1227" y="1084"/>
      <point x="1227" y="1114" type="curve" smooth="yes"/>
      <point x="1227" y="1145"/>
      <point x="1208" y="1176"/>
      <point x="1165" y="1176" type="curve" smooth="yes"/>
      <point x="992" y="1176" type="line"/>
      <point x="939" y="1314"/>
      <point x="833" y="1525"/>
      <point x="733" y="1525" type="curve" smooth="yes"/>
      <point x="672" y="1525"/>
      <point x="623" y="1459"/>
      <point x="674" y="1401" type="curve" smooth="yes"/>
      <point x="732" y="1334"/>
      <point x="778" y="1254"/>
      <point x="810" y="1176" type="curve"/>
      <point x="635" y="1176" type="line" smooth="yes"/>
      <point x="592" y="1176"/>
      <point x="571" y="1144"/>
      <point x="571" y="1113" type="curve" smooth="yes"/>
      <point x="571" y="1083"/>
      <point x="592" y="1052"/>
      <point x="635" y="1052" type="curve" smooth="yes"/>
      <point x="852" y="1052" type="line"/>
      <point x="888" y="914"/>
      <point x="895" y="782"/>
      <point x="895" y="676" type="curve"/>
      <point x="832" y="819"/>
      <point x="689" y="888"/>
      <point x="529" y="888" type="curve" smooth="yes"/>
      <point x="251" y="888"/>
      <point x="89" y="701"/>
      <point x="89" y="437" type="curve" smooth="yes"/>
      <point x="89" y="170"/>
      <point x="265" y="-33"/>
    </contour>
    <contour>
      <point x="571" y="105" type="curve" smooth="yes"/>
      <point x="374" y="105"/>
      <point x="265" y="240"/>
      <point x="265" y="427" type="curve" smooth="yes"/>
      <point x="265" y="604"/>
      <point x="348" y="764"/>
      <point x="548" y="764" type="curve" smooth="yes"/>
      <point x="760" y="764"/>
      <point x="874" y="616"/>
      <point x="874" y="419" type="curve" smooth="yes"/>
      <point x="874" y="251"/>
      <point x="748" y="105"/>
    </contour>
  </outline>
</glyph>
<glyph name="Dcroat" format="1">
  <advance width="1495"/>
  <unicode hex="0110"/>
  <outline>
    <contour>
      <point x="68" y="666" type="curve" smooth="yes"/>
      <point x="536" y="666" type="line" smooth="yes"/>
      <point x="578" y="666"/>
      <point x="604" y="687"/>
      <point x="604" y="721" type="curve" smooth="yes"/>
      <point x="604" y="756"/>
      <point x="578" y="778"/>
      <point x="536" y="778" type="curve" smooth="yes"/>
      <point x="66" y="778" type="line" smooth="yes"/>
      <point x="24" y="778"/>
      <point x="-3" y="756"/>
      <point x="-3" y="721" type="curve" smooth="yes"/>
      <point x="-3" y="687"/>
      <point x="25" y="666"/>
    </contour>
    <component base="D"/>
  </outline>
</glyph>
<glyph name="Hbar" format="1">
  <advance width="1456"/>
  <unicode hex="0126"/>
  <outline>
    <component base="H"/>
    <contour>
      <point x="123" y="1028" type="curve" smooth="yes"/>
      <point x="1336" y="1028" type="line" smooth="yes"/>
      <point x="1375" y="1028"/>
      <point x="1400" y="1046"/>
      <point x="1400" y="1076" type="curve" smooth="yes"/>
      <point x="1400" y="1107"/>
      <point x="1375" y="1125"/>
      <point x="1336" y="1125" type="curve" smooth="yes"/>
      <point x="123" y="1125" type="line" smooth="yes"/>
      <point x="85" y="1125"/>
      <point x="60" y="1107"/>
      <point x="60" y="1076" type="curve" smooth="yes"/>
      <point x="60" y="1046"/>
      <point x="85" y="1028"/>
    </contour>
  </outline>
</glyph>
<glyph name="Hbar" format="1">
  <advance width="1456"/>
  <unicode hex="0126"/>
  <outline>
    <contour>
      <point x="123" y="1028" type="curve"/>
      <point x="1336" y="1028" type="line"/>
      <point x="1375" y="1028"/>
      <point x="1400" y="1046"/>
      <point x="1400" y="1076" type="curve" smooth="yes"/>
      <point x="1400" y="1107"/>
      <point x="1375" y="1125"/>
      <point x="1336" y="1125" type="curve" smooth="yes"/>
      <point x="123" y="1125" type="line" smooth="yes"/>
      <point x="85" y="1125"/>
      <point x="60" y="1107"/>
      <point x="60" y="1076" type="curve" smooth="yes"/>
      <point x="60" y="1046"/>
      <point x="85" y="1028"/>
    </contour>
    <component base="H"/>
  </outline>
</glyph>
<glyph name="dotlessi" format="1">
  <advance width="467"/>
  <unicode hex="0131"/>
  <outline>
    <contour>
      <point x="232" y="0" type="curve" smooth="yes"/>
      <point x="268" y="0"/>
      <point x="307" y="26"/>
      <point x="307" y="75" type="curve" smooth="yes"/>
      <point x="307" y="916" type="line" smooth="yes"/>
      <point x="307" y="964"/>
      <point x="270" y="989"/>
      <point x="235" y="989" type="curve" smooth="yes"/>
      <point x="198" y="989"/>
      <point x="160" y="964"/>
      <point x="160" y="916" type="curve" smooth="yes"/>
      <point x="160" y="75" type="line" smooth="yes"/>
      <point x="160" y="23"/>
      <point x="195" y="0"/>
    </contour>
  </outline>
</glyph>
<glyph name="Eng" format="1">
  <advance width="1484"/>
  <unicode hex="014A"/>
  <outline>
    <contour>
      <point x="637" y="-398" type="curve" smooth="yes"/>
      <point x="753" y="-422"/>
      <point x="855" y="-437"/>
      <point x="942" y="-437" type="curve" smooth="yes"/>
      <point x="1181" y="-437"/>
      <point x="1311" y="-322"/>
      <point x="1311" y="49" type="curve" smooth="yes"/>
      <point x="1311" y="1350" type="line" smooth="yes"/>
      <point x="1311" y="1399"/>
      <point x="1274" y="1424"/>
      <point x="1236" y="1424" type="curve" smooth="yes"/>
      <point x="1196" y="1424"/>
      <point x="1161" y="1399"/>
      <point x="1161" y="1350" type="curve" smooth="yes"/>
      <point x="1161" y="219" type="line"/>
      <point x="399" y="1343" type="line" smooth="yes"/>
      <point x="361" y="1399"/>
      <point x="314" y="1424"/>
      <point x="278" y="1424" type="curve" smooth="yes"/>
      <point x="222" y="1424"/>
      <point x="182" y="1384"/>
      <point x="182" y="1313" type="curve" smooth="yes"/>
      <point x="182" y="73" type="line" smooth="yes"/>
      <point x="182" y="24"/>
      <point x="217" y="0"/>
      <point x="257" y="0" type="curve" smooth="yes"/>
      <point x="296" y="0"/>
      <point x="331" y="25"/>
      <point x="331" y="73" type="curve" smooth="yes"/>
      <point x="331" y="1187" type="line"/>
      <point x="1161" y="6.66333" type="line"/>
      <point x="1161" y="-7" type="line" smooth="yes"/>
      <point x="1161" y="-217"/>
      <point x="1112" y="-316"/>
      <point x="937" y="-316" type="curve" smooth="yes"/>
      <point x="867" y="-316"/>
      <point x="776" y="-300"/>
      <point x="658" y="-269" type="curve" smooth="yes"/>
      <point x="650" y="-267"/>
      <point x="642" y="-266"/>
      <point x="635" y="-266" type="curve" smooth="yes"/>
      <point x="594" y="-266"/>
      <point x="566" y="-297"/>
      <point x="566" y="-330" type="curve" smooth="yes"/>
      <point x="566" y="-358"/>
      <point x="587" y="-388"/>
    </contour>
  </outline>
</glyph>
<glyph name="Eng" format="1">
  <advance width="1484"/>
  <unicode hex="014A"/>
  <outline>
    <contour>
      <point x="635" y="-398" type="curve" smooth="yes"/>
      <point x="1068" y="-488"/>
      <point x="1309" y="-457"/>
      <point x="1309" y="49" type="curve"/>
      <point x="1309" y="350" type="line"/>
      <point x="1154" y="353" type="line"/>
      <point x="1154" y="-7" type="line" smooth="yes"/>
      <point x="1154" y="-302"/>
      <point x="1067" y="-377"/>
      <point x="656" y="-269" type="curve" smooth="yes"/>
      <point x="562" y="-244"/>
      <point x="517" y="-374"/>
    </contour>
    <component base="N" xOffset="2"/>
  </outline>
</glyph>
<glyph name="eng" format="1">
  <advance width="1157"/>
  <unicode hex="014B"/>
  <outline>
    <component base="n"/>
    <contour>
      <point x="397" y="-274" type="curve" smooth="yes"/>
      <point x="764" y="-394"/>
      <point x="1001" y="-293"/>
      <point x="1001" y="57" type="curve" smooth="yes"/>
      <point x="1001" y="353" type="line"/>
      <point x="844" y="353" type="line"/>
      <point x="844" y="73" type="line" smooth="yes"/>
      <point x="844" y="-213"/>
      <point x="716" y="-248"/>
      <point x="428" y="-157" type="curve" smooth="yes"/>
      <point x="349" y="-132"/>
      <point x="318" y="-247"/>
    </contour>
  </outline>
</glyph>
<glyph name="uni0237" format="1">
  <advance width="468"/>
  <unicode hex="0237"/>
  <outline>
    <contour>
      <point x="2" y="-376" type="curve" smooth="yes"/>
      <point x="297" y="-376"/>
      <point x="308" y="-284"/>
      <point x="308" y="-36" type="curve" smooth="yes"/>
      <point x="308" y="919" type="line" smooth="yes"/>
      <point x="308" y="966"/>
      <point x="268" y="990"/>
      <point x="236" y="990" type="curve" smooth="yes"/>
      <point x="202" y="990"/>
      <point x="162" y="966"/>
      <point x="162" y="920" type="curve" smooth="yes"/>
      <point x="162" y="-81" type="line" smooth="yes"/>
      <point x="162" y="-240"/>
      <point x="147" y="-258"/>
      <point x="15" y="-258" type="curve" smooth="yes"/>
      <point x="3" y="-258" type="line" smooth="yes"/>
      <point x="-33" y="-258"/>
      <point x="-52" y="-289"/>
      <point x="-52" y="-319" type="curve" smooth="yes"/>
      <point x="-52" y="-348"/>
      <point x="-34" y="-376"/>
    </contour>
  </outline>
</glyph>
<glyph name="uni02C9" format="1">
  <advance width="569"/>
  <unicode hex="02C9"/>
  <outline>
    <contour>
      <point x="287" y="1040" type="move" name="_top"/>
    </contour>
    <contour>
      <point x="42" y="1321" type="curve" smooth="yes"/>
      <point x="533" y="1321" type="line" smooth="yes"/>
      <point x="575" y="1321"/>
      <point x="596" y="1345"/>
      <point x="596" y="1380" type="curve" smooth="yes"/>
      <point x="596" y="1412"/>
      <point x="575" y="1438"/>
      <point x="533" y="1438" type="curve" smooth="yes"/>
      <point x="42" y="1438" type="line" smooth="yes"/>
      <point x="-2" y="1438"/>
      <point x="-24" y="1412"/>
      <point x="-24" y="1380" type="curve" smooth="yes"/>
      <point x="-24" y="1345"/>
      <point x="-2" y="1321"/>
    </contour>
  </outline>
</glyph>
<glyph name="breve" format="1">
  <advance width="569"/>
  <unicode hex="02D8"/>
  <outline>
    <contour>
      <point x="285" y="1040" type="move" name="_top"/>
    </contour>
    <contour>
      <point x="285" y="1250" type="curve" smooth="yes"/>
      <point x="412" y="1250"/>
      <point x="506" y="1306"/>
      <point x="549" y="1402" type="curve" smooth="yes"/>
      <point x="553" y="1410"/>
      <point x="555" y="1418"/>
      <point x="555" y="1426" type="curve" smooth="yes"/>
      <point x="555" y="1454"/>
      <point x="532" y="1470"/>
      <point x="506" y="1470" type="curve" smooth="yes"/>
      <point x="487" y="1470"/>
      <point x="471" y="1461"/>
      <point x="458" y="1445" type="curve" smooth="yes"/>
      <point x="413" y="1384"/>
      <point x="373" y="1362"/>
      <point x="285" y="1362" type="curve" smooth="yes"/>
      <point x="196" y="1362"/>
      <point x="155" y="1384"/>
      <point x="112" y="1445" type="curve" smooth="yes"/>
      <point x="100" y="1461"/>
      <point x="82" y="1470"/>
      <point x="64" y="1470" type="curve" smooth="yes"/>
      <point x="38" y="1470"/>
      <point x="15" y="1454"/>
      <point x="15" y="1426" type="curve" smooth="yes"/>
      <point x="15" y="1418"/>
      <point x="17" y="1410"/>
      <point x="21" y="1402" type="curve" smooth="yes"/>
      <point x="64" y="1306"/>
      <point x="158" y="1250"/>
    </contour>
  </outline>
</glyph>
<glyph name="ogonek" format="1">
  <advance width="569"/>
  <unicode hex="02DB"/>
  <outline>
    <contour>
      <point x="243" y="0" type="move" name="_ogonek"/>
    </contour>
    <contour>
      <point x="424" y="-419" type="curve"/>
      <point x="424" y="-347" type="line"/>
      <point x="307" y="-347"/>
      <point x="213" y="-312"/>
      <point x="213" y="-203" type="curve" smooth="yes"/>
      <point x="213" y="-153"/>
      <point x="233" y="-86"/>
      <point x="280" y="0" type="curve"/>
      <point x="215" y="0" type="line"/>
      <point x="118" y="-113"/>
      <point x="76" y="-210"/>
      <point x="76" y="-284" type="curve" smooth="yes"/>
      <point x="76" y="-384"/>
      <point x="153" y="-442"/>
      <point x="276" y="-442" type="curve" smooth="yes"/>
      <point x="320" y="-442"/>
      <point x="370" y="-434"/>
    </contour>
  </outline>
</glyph>
<glyph name="tilde" format="1">
  <advance width="569"/>
  <unicode hex="02DC"/>
  <outline>
    <contour>
      <point x="293" y="1040" type="move" name="_top"/>
    </contour>
    <contour>
      <point x="33" y="1177" type="curve" smooth="yes"/>
      <point x="51" y="1177"/>
      <point x="69" y="1186"/>
      <point x="85" y="1205" type="curve" smooth="yes"/>
      <point x="109" y="1232"/>
      <point x="133" y="1243"/>
      <point x="162" y="1243" type="curve" smooth="yes"/>
      <point x="232" y="1243"/>
      <point x="318" y="1177"/>
      <point x="394" y="1177" type="curve" smooth="yes"/>
      <point x="483" y="1177"/>
      <point x="539" y="1234"/>
      <point x="562" y="1303" type="curve"/>
      <point x="563" y="1307"/>
      <point x="567" y="1310"/>
      <point x="571" y="1315" type="curve" smooth="yes"/>
      <point x="572" y="1340"/>
      <point x="557" y="1356"/>
      <point x="532" y="1356" type="curve" smooth="yes"/>
      <point x="497" y="1358"/>
      <point x="457" y="1288"/>
      <point x="411" y="1288" type="curve" smooth="yes"/>
      <point x="345" y="1288"/>
      <point x="260" y="1351"/>
      <point x="172" y="1351" type="curve" smooth="yes"/>
      <point x="84" y="1351"/>
      <point x="31" y="1300"/>
      <point x="1" y="1228" type="curve"/>
      <point x="-2" y="1222"/>
      <point x="-3" y="1216"/>
      <point x="-3" y="1209" type="curve" smooth="yes"/>
      <point x="-3" y="1188"/>
      <point x="14" y="1177"/>
    </contour>
  </outline>
</glyph>
<glyph name="hungarumlaut" format="1">
  <advance width="569"/>
  <unicode hex="02DD"/>
  <outline>
    <contour>
      <point x="174" y="1040" type="move" name="_top"/>
    </contour>
    <contour>
      <point x="17" y="1104" type="curve" smooth="yes"/>
      <point x="29" y="1104"/>
      <point x="43" y="1108"/>
      <point x="58" y="1120" type="curve" smooth="yes"/>
      <point x="380" y="1366" type="line" smooth="yes"/>
      <point x="396" y="1378"/>
      <point x="402" y="1394"/>
      <point x="402" y="1410" type="curve" smooth="yes"/>
      <point x="402" y="1453"/>
      <point x="357" y="1497"/>
      <point x="313" y="1497" type="curve" smooth="yes"/>
      <point x="294" y="1497"/>
      <point x="277" y="1489"/>
      <point x="262" y="1473" type="curve" smooth="yes"/>
      <point x="-7" y="1172" type="line" smooth="yes"/>
      <point x="-17" y="1161"/>
      <point x="-20" y="1151"/>
      <point x="-20" y="1140" type="curve" smooth="yes"/>
      <point x="-20" y="1119"/>
      <point x="-6" y="1104"/>
    </contour>
    <contour>
      <point x="328" y="1104" type="curve" smooth="yes"/>
      <point x="339" y="1104"/>
      <point x="352" y="1108"/>
      <point x="367" y="1120" type="curve" smooth="yes"/>
      <point x="690" y="1366" type="line" smooth="yes"/>
      <point x="705" y="1378"/>
      <point x="712" y="1395"/>
      <point x="712" y="1411" type="curve" smooth="yes"/>
      <point x="712" y="1453"/>
      <point x="667" y="1497"/>
      <point x="622" y="1497" type="curve" smooth="yes"/>
      <point x="604" y="1497"/>
      <point x="587" y="1489"/>
      <point x="572" y="1473" type="curve" smooth="yes"/>
      <point x="302" y="1172" type="line" smooth="yes"/>
      <point x="292" y="1161"/>
      <point x="290" y="1151"/>
      <point x="290" y="1140" type="curve" smooth="yes"/>
      <point x="290" y="1120"/>
      <point x="305" y="1104"/>
    </contour>
  </outline>
</glyph>
<glyph name="breveinvertedcomb" format="1">
  <advance width="569"/>
  <unicode hex="0311"/>
  <outline>
    <contour>
      <point x="286" y="1040" type="move" name="_top"/>
    </contour>
    <contour>
      <point x="65" y="1268" type="curve" smooth="yes"/>
      <point x="84" y="1268"/>
      <point x="100" y="1277"/>
      <point x="113" y="1294" type="curve" smooth="yes"/>
      <point x="156" y="1355"/>
      <point x="197" y="1377"/>
      <point x="285" y="1377" type="curve" smooth="yes"/>
      <point x="373" y="1377"/>
      <point x="412" y="1355"/>
      <point x="457" y="1294" type="curve" smooth="yes"/>
      <point x="470" y="1277"/>
      <point x="486" y="1268"/>
      <point x="505" y="1268" type="curve" smooth="yes"/>
      <point x="532" y="1268"/>
      <point x="555" y="1285"/>
      <point x="555" y="1312" type="curve" smooth="yes"/>
      <point x="555" y="1319"/>
      <point x="553" y="1328"/>
      <point x="549" y="1337" type="curve" smooth="yes"/>
      <point x="506" y="1433"/>
      <point x="411" y="1489"/>
      <point x="285" y="1489" type="curve" smooth="yes"/>
      <point x="159" y="1489"/>
      <point x="64" y="1433"/>
      <point x="21" y="1337" type="curve" smooth="yes"/>
      <point x="17" y="1328"/>
      <point x="15" y="1319"/>
      <point x="15" y="1312" type="curve" smooth="yes"/>
      <point x="15" y="1285"/>
      <point x="38" y="1268"/>
    </contour>
  </outline>
</glyph>
<glyph name="commaaccent" format="1">
  <advance width="583"/>
  <unicode hex="0326"/>
  <outline>
    <contour>
      <point x="308" y="0" type="move" name="_bot"/>
    </contour>
    <contour>
      <point x="158" y="-593" type="curve"/>
      <point x="181" y="-593" type="line"/>
      <point x="210" y="-594"/>
      <point x="226" y="-582"/>
      <point x="237" y="-550" type="curve" smooth="yes"/>
      <point x="367" y="-160" type="line" smooth="yes"/>
      <point x="372" y="-146"/>
      <point x="375" y="-107"/>
      <point x="333" y="-104" type="curve"/>
      <point x="271" y="-104" type="line"/>
      <point x="239" y="-105"/>
      <point x="206" y="-113"/>
      <point x="198" y="-160" type="curve" smooth="yes"/>
      <point x="134" y="-550" type="line" smooth="yes"/>
      <point x="132" y="-562"/>
      <point x="130" y="-592"/>
    </contour>
  </outline>
</glyph>
<glyph name="uni0394" format="1">
  <advance width="1178"/>
  <unicode hex="0394"/>
  <outline>
    <contour>
      <point x="1" y="0" type="line"/>
      <point x="1178" y="0" type="line"/>
      <point x="643" y="1387" type="line" smooth="yes"/>
      <point x="632" y="1417"/>
      <point x="611" y="1432"/>
      <point x="591" y="1432" type="curve" smooth="yes"/>
      <point x="571" y="1432"/>
      <point x="550" y="1417"/>
      <point x="538" y="1387" type="curve" smooth="yes"/>
    </contour>
    <contour>
      <point x="163" y="84" type="line"/>
      <point x="590" y="1240" type="line"/>
      <point x="1021" y="84" type="line"/>
    </contour>
  </outline>
</glyph>
<glyph name="uni03BC" format="1">
  <advance width="1145"/>
  <unicode hex="03BC"/>
  <outline>
    <contour>
      <point x="220" y="-269" type="curve" smooth="yes"/>
      <point x="253" y="-269"/>
      <point x="295" y="-247"/>
      <point x="295" y="-200" type="curve" smooth="yes"/>
      <point x="295" y="501" type="line"/>
      <point x="149" y="501" type="line"/>
      <point x="149" y="-200" type="line" smooth="yes"/>
      <point x="149" y="-248"/>
      <point x="186" y="-269"/>
    </contour>
    <component base="u"/>
  </outline>
</glyph>
<glyph name="uni03BC" format="1">
  <advance width="1150"/>
  <unicode hex="03BC"/>
  <outline>
    <component base="u"/>
    <contour>
      <point x="223" y="-271" type="curve" smooth="yes"/>
      <point x="262" y="-271"/>
      <point x="304" y="-244"/>
      <point x="304" y="-192" type="curve" smooth="yes"/>
      <point x="304" y="501" type="line"/>
      <point x="147" y="501" type="line"/>
      <point x="147" y="-192" type="line" smooth="yes"/>
      <point x="147" y="-246"/>
      <point x="184" y="-271"/>
    </contour>
  </outline>
</glyph>
<glyph name="quoteleft" format="1">
  <advance width="583"/>
  <unicode hex="2018"/>
  <outline>
    <contour>
      <point x="190" y="1006" type="curve" smooth="yes"/>
      <point x="280" y="1006" type="line" smooth="yes"/>
      <point x="312" y="1007"/>
      <point x="345" y="1015"/>
      <point x="353" y="1062" type="curve" smooth="yes"/>
      <point x="409" y="1383" type="line" smooth="yes"/>
      <point x="411" y="1395"/>
      <point x="413" y="1426"/>
      <point x="385" y="1426" type="curve" smooth="yes"/>
      <point x="345" y="1426" type="line" smooth="yes"/>
      <point x="316" y="1426"/>
      <point x="302" y="1415"/>
      <point x="289" y="1383" type="curve" smooth="yes"/>
      <point x="156" y="1062" type="line" smooth="yes"/>
      <point x="150" y="1048"/>
      <point x="148" y="1006"/>
    </contour>
  </outline>
</glyph>
<glyph name="quotesinglbase" format="1">
  <advance width="583"/>
  <unicode hex="201A"/>
  <outline>
    <contour>
      <point x="198" y="-230" type="curve" smooth="yes"/>
      <point x="239" y="-230" type="line" smooth="yes"/>
      <point x="269" y="-230"/>
      <point x="282" y="-219"/>
      <point x="295" y="-187" type="curve" smooth="yes"/>
      <point x="428" y="134" type="line" smooth="yes"/>
      <point x="434" y="148"/>
      <point x="436" y="190"/>
      <point x="394" y="190" type="curve" smooth="yes"/>
      <point x="304" y="190" type="line" smooth="yes"/>
      <point x="272" y="189"/>
      <point x="239" y="181"/>
      <point x="231" y="134" type="curve" smooth="yes"/>
      <point x="174" y="-187" type="line" smooth="yes"/>
      <point x="172" y="-199"/>
      <point x="170" y="-229"/>
    </contour>
  </outline>
</glyph>
<glyph name="quotedblleft" format="1">
  <advance width="1143"/>
  <unicode hex="201C"/>
  <outline>
    <contour>
      <point x="287" y="1025" type="curve" smooth="yes"/>
      <point x="369" y="1025" type="line" smooth="yes"/>
      <point x="401" y="1026"/>
      <point x="434" y="1034"/>
      <point x="442" y="1081" type="curve" smooth="yes"/>
      <point x="495" y="1381" type="line" smooth="yes"/>
      <point x="497" y="1393"/>
      <point x="499" y="1424"/>
      <point x="471" y="1424" type="curve" smooth="yes"/>
      <point x="436" y="1424" type="line" smooth="yes"/>
      <point x="407" y="1424"/>
      <point x="393" y="1413"/>
      <point x="380" y="1381" type="curve" smooth="yes"/>
      <point x="253" y="1081" type="line" smooth="yes"/>
      <point x="247" y="1067"/>
      <point x="245" y="1025"/>
    </contour>
    <contour>
      <point x="644" y="1025" type="curve" smooth="yes"/>
      <point x="725" y="1025" type="line" smooth="yes"/>
      <point x="757" y="1026"/>
      <point x="790" y="1034"/>
      <point x="798" y="1081" type="curve" smooth="yes"/>
      <point x="852" y="1381" type="line" smooth="yes"/>
      <point x="854" y="1393"/>
      <point x="856" y="1424"/>
      <point x="828" y="1424" type="curve" smooth="yes"/>
      <point x="793" y="1424" type="line" smooth="yes"/>
      <point x="764" y="1424"/>
      <point x="750" y="1413"/>
      <point x="737" y="1381" type="curve" smooth="yes"/>
      <point x="610" y="1081" type="line" smooth="yes"/>
      <point x="604" y="1067"/>
      <point x="602" y="1025"/>
    </contour>
  </outline>
</glyph>
<glyph name="quotedblbase" format="1">
  <advance width="1145"/>
  <unicode hex="201E"/>
  <outline>
    <contour>
      <point x="285" y="-233" type="curve"/>
      <point x="325" y="-233" type="line"/>
      <point x="354" y="-234"/>
      <point x="368" y="-222"/>
      <point x="381" y="-190" type="curve" smooth="yes"/>
      <point x="514" y="132" type="line" smooth="yes"/>
      <point x="521" y="146"/>
      <point x="522" y="185"/>
      <point x="480" y="188" type="curve"/>
      <point x="391" y="188" type="line"/>
      <point x="359" y="187"/>
      <point x="326" y="179"/>
      <point x="318" y="132" type="curve" smooth="yes"/>
      <point x="261" y="-190" type="line" smooth="yes"/>
      <point x="259" y="-202"/>
      <point x="257" y="-232"/>
    </contour>
    <contour>
      <point x="678" y="-233" type="curve"/>
      <point x="718" y="-233" type="line"/>
      <point x="747" y="-234"/>
      <point x="761" y="-222"/>
      <point x="774" y="-190" type="curve" smooth="yes"/>
      <point x="907" y="132" type="line" smooth="yes"/>
      <point x="913" y="146"/>
      <point x="915" y="185"/>
      <point x="873" y="188" type="curve"/>
      <point x="784" y="188" type="line"/>
      <point x="752" y="187"/>
      <point x="719" y="179"/>
      <point x="711" y="132" type="curve" smooth="yes"/>
      <point x="654" y="-190" type="line" smooth="yes"/>
      <point x="652" y="-202"/>
      <point x="650" y="-232"/>
    </contour>
  </outline>
</glyph>
<glyph name="daggerdbl" format="1">
  <advance width="1167"/>
  <unicode hex="2021"/>
  <outline>
    <contour>
      <point x="583" y="-1" type="curve" smooth="yes"/>
      <point x="621" y="-1"/>
      <point x="658" y="24"/>
      <point x="658" y="72" type="curve" smooth="yes"/>
      <point x="658" y="351" type="line"/>
      <point x="941" y="351" type="line" smooth="yes"/>
      <point x="984" y="351"/>
      <point x="1006" y="383"/>
      <point x="1006" y="417" type="curve" smooth="yes"/>
      <point x="1006" y="450"/>
      <point x="984" y="482"/>
      <point x="941" y="482" type="curve" smooth="yes"/>
      <point x="658" y="482" type="line"/>
      <point x="658" y="991" type="line"/>
      <point x="941" y="991" type="line" smooth="yes"/>
      <point x="984" y="991"/>
      <point x="1006" y="1022"/>
      <point x="1006" y="1057" type="curve" smooth="yes"/>
      <point x="1006" y="1089"/>
      <point x="984" y="1122"/>
      <point x="941" y="1122" type="curve" smooth="yes"/>
      <point x="658" y="1122" type="line"/>
      <point x="658" y="1404" type="line" smooth="yes"/>
      <point x="658" y="1454"/>
      <point x="621" y="1478"/>
      <point x="583" y="1478" type="curve" smooth="yes"/>
      <point x="546" y="1478"/>
      <point x="509" y="1454"/>
      <point x="509" y="1404" type="curve" smooth="yes"/>
      <point x="509" y="1122" type="line"/>
      <point x="221" y="1122" type="line" smooth="yes"/>
      <point x="178" y="1122"/>
      <point x="158" y="1088"/>
      <point x="158" y="1056" type="curve" smooth="yes"/>
      <point x="158" y="1023"/>
      <point x="178" y="991"/>
      <point x="221" y="991" type="curve" smooth="yes"/>
      <point x="509" y="991" type="line"/>
      <point x="509" y="482" type="line"/>
      <point x="221" y="482" type="line" smooth="yes"/>
      <point x="178" y="482"/>
      <point x="158" y="449"/>
      <point x="158" y="416" type="curve" smooth="yes"/>
      <point x="158" y="384"/>
      <point x="178" y="351"/>
      <point x="221" y="351" type="curve" smooth="yes"/>
      <point x="509" y="351" type="line"/>
      <point x="509" y="72" type="line" smooth="yes"/>
      <point x="509" y="24"/>
      <point x="546" y="-1"/>
    </contour>
  </outline>
</glyph>
<glyph name="perthousand" format="1">
  <advance width="2302"/>
  <unicode hex="2030"/>
  <outline>
    <contour>
      <point x="356" y="-71" type="curve" smooth="yes"/>
      <point x="375" y="-71"/>
      <point x="390" y="-64"/>
      <point x="402" y="-43" type="curve" smooth="yes"/>
      <point x="1196" y="1348" type="line" smooth="yes"/>
      <point x="1202" y="1358"/>
      <point x="1204" y="1369"/>
      <point x="1204" y="1379" type="curve" smooth="yes"/>
      <point x="1204" y="1411"/>
      <point x="1180" y="1436"/>
      <point x="1151" y="1436" type="curve" smooth="yes"/>
      <point x="1131" y="1436"/>
      <point x="1110" y="1425"/>
      <point x="1095" y="1398" type="curve" smooth="yes"/>
      <point x="304" y="7" type="line" smooth="yes"/>
      <point x="299" y="-1"/>
      <point x="296" y="-10"/>
      <point x="296" y="-18" type="curve" smooth="yes"/>
      <point x="296" y="-48"/>
      <point x="325" y="-71"/>
    </contour>
    <contour>
      <point x="372" y="742" type="curve" smooth="yes"/>
      <point x="223" y="742"/>
      <point x="172" y="888"/>
      <point x="172" y="1023" type="curve" smooth="yes"/>
      <point x="172" y="1155"/>
      <point x="223" y="1302"/>
      <point x="372" y="1302" type="curve" smooth="yes"/>
      <point x="522" y="1302"/>
      <point x="572" y="1155"/>
      <point x="572" y="1023" type="curve" smooth="yes"/>
      <point x="572" y="889"/>
      <point x="522" y="742"/>
    </contour>
    <contour>
      <point x="371" y="642" type="curve" smooth="yes"/>
      <point x="583" y="642"/>
      <point x="700" y="820"/>
      <point x="700" y="1025" type="curve" smooth="yes"/>
      <point x="700" y="1227"/>
      <point x="579" y="1402"/>
      <point x="374" y="1402" type="curve" smooth="yes"/>
      <point x="162" y="1402"/>
      <point x="45" y="1224"/>
      <point x="45" y="1021" type="curve" smooth="yes"/>
      <point x="45" y="818"/>
      <point x="164" y="642"/>
    </contour>
    <contour>
      <point x="1151" y="70" type="curve" smooth="yes"/>
      <point x="1001" y="70"/>
      <point x="952" y="215"/>
      <point x="952" y="349" type="curve" smooth="yes"/>
      <point x="952" y="482"/>
      <point x="1001" y="629"/>
      <point x="1151" y="629" type="curve" smooth="yes"/>
      <point x="1301" y="629"/>
      <point x="1351" y="482"/>
      <point x="1351" y="349" type="curve" smooth="yes"/>
      <point x="1351" y="215"/>
      <point x="1301" y="70"/>
    </contour>
    <contour>
      <point x="1150" y="-31" type="curve" smooth="yes"/>
      <point x="1361" y="-31"/>
      <point x="1479" y="147"/>
      <point x="1479" y="350" type="curve" smooth="yes"/>
      <point x="1479" y="554"/>
      <point x="1358" y="729"/>
      <point x="1153" y="729" type="curve" smooth="yes"/>
      <point x="940" y="729"/>
      <point x="823" y="551"/>
      <point x="823" y="347" type="curve" smooth="yes"/>
      <point x="823" y="144"/>
      <point x="944" y="-31"/>
    </contour>
    <contour>
      <point x="1897" y="70" type="curve" smooth="yes"/>
      <point x="1747" y="70"/>
      <point x="1696" y="215"/>
      <point x="1696" y="349" type="curve" smooth="yes"/>
      <point x="1696" y="481"/>
      <point x="1747" y="629"/>
      <point x="1897" y="629" type="curve" smooth="yes"/>
      <point x="2047" y="629"/>
      <point x="2097" y="482"/>
      <point x="2097" y="349" type="curve" smooth="yes"/>
      <point x="2097" y="215"/>
      <point x="2047" y="70"/>
    </contour>
    <contour>
      <point x="1896" y="-31" type="curve" smooth="yes"/>
      <point x="2107" y="-31"/>
      <point x="2224" y="147"/>
      <point x="2224" y="350" type="curve" smooth="yes"/>
      <point x="2224" y="554"/>
      <point x="2104" y="729"/>
      <point x="1899" y="729" type="curve" smooth="yes"/>
      <point x="1686" y="729"/>
      <point x="1569" y="551"/>
      <point x="1569" y="347" type="curve" smooth="yes"/>
      <point x="1569" y="145"/>
      <point x="1689" y="-31"/>
    </contour>
  </outline>
</glyph>
<glyph name="guilsinglleft" format="1">
  <advance width="583"/>
  <unicode hex="2039"/>
  <outline>
    <contour>
      <point x="388" y="117" type="curve" smooth="yes"/>
      <point x="418" y="117"/>
      <point x="443" y="139"/>
      <point x="443" y="169" type="curve" smooth="yes"/>
      <point x="443" y="178"/>
      <point x="441" y="187"/>
      <point x="438" y="194" type="curve" smooth="yes"/>
      <point x="274" y="544" type="line"/>
      <point x="438" y="894" type="line" smooth="yes"/>
      <point x="442" y="902"/>
      <point x="443" y="911"/>
      <point x="443" y="917" type="curve" smooth="yes"/>
      <point x="443" y="948"/>
      <point x="418" y="971"/>
      <point x="388" y="971" type="curve" smooth="yes"/>
      <point x="364" y="971"/>
      <point x="339" y="957"/>
      <point x="321" y="924" type="curve" smooth="yes"/>
      <point x="110" y="544" type="line"/>
      <point x="321" y="163" type="line" smooth="yes"/>
      <point x="340" y="129"/>
      <point x="364" y="117"/>
    </contour>
  </outline>
</glyph>
<glyph name="guilsinglright" format="1">
  <advance width="583"/>
  <unicode hex="203A"/>
  <outline>
    <contour>
      <point x="196" y="117" type="curve" smooth="yes"/>
      <point x="218" y="117"/>
      <point x="245" y="129"/>
      <point x="264" y="163" type="curve" smooth="yes"/>
      <point x="475" y="544" type="line"/>
      <point x="264" y="924" type="line" smooth="yes"/>
      <point x="245" y="957"/>
      <point x="217" y="971"/>
      <point x="196" y="971" type="curve" smooth="yes"/>
      <point x="165" y="971"/>
      <point x="140" y="948"/>
      <point x="140" y="917" type="curve" smooth="yes"/>
      <point x="140" y="910"/>
      <point x="142" y="902"/>
      <point x="146" y="894" type="curve" smooth="yes"/>
      <point x="311" y="544" type="line"/>
      <point x="146" y="194" type="line" smooth="yes"/>
      <point x="142" y="185"/>
      <point x="140" y="177"/>
      <point x="140" y="170" type="curve" smooth="yes"/>
      <point x="140" y="140"/>
      <point x="165" y="117"/>
    </contour>
  </outline>
</glyph>
<glyph name="trademark" format="1">
  <advance width="1936"/>
  <unicode hex="2122"/>
  <outline>
    <contour>
      <point x="876" y="653" type="curve" smooth="yes"/>
      <point x="907" y="653"/>
      <point x="939" y="674"/>
      <point x="939" y="713" type="curve" smooth="yes"/>
      <point x="939" y="1190" type="line"/>
      <point x="1183" y="695" type="line"/>
      <point x="1194" y="669"/>
      <point x="1216" y="658"/>
      <point x="1238" y="658" type="curve" smooth="yes"/>
      <point x="1262" y="658"/>
      <point x="1284" y="672"/>
      <point x="1296" y="695" type="curve" smooth="yes"/>
      <point x="1539" y="1190" type="line"/>
      <point x="1539" y="713" type="line" smooth="yes"/>
      <point x="1539" y="673"/>
      <point x="1569" y="653"/>
      <point x="1601" y="653" type="curve" smooth="yes"/>
      <point x="1633" y="653"/>
      <point x="1665" y="674"/>
      <point x="1665" y="713" type="curve" smooth="yes"/>
      <point x="1665" y="1262" type="line" smooth="yes"/>
      <point x="1665" y="1338"/>
      <point x="1621" y="1371"/>
      <point x="1570" y="1371" type="curve" smooth="yes"/>
      <point x="1532" y="1371"/>
      <point x="1494" y="1350"/>
      <point x="1467" y="1295" type="curve" smooth="yes"/>
      <point x="1240" y="838" type="line"/>
      <point x="1012" y="1295" type="line" smooth="yes"/>
      <point x="984" y="1350"/>
      <point x="945" y="1372"/>
      <point x="909" y="1372" type="curve" smooth="yes"/>
      <point x="858" y="1372"/>
      <point x="813" y="1338"/>
      <point x="813" y="1262" type="curve" smooth="yes"/>
      <point x="813" y="713" type="line" smooth="yes"/>
      <point x="813" y="674"/>
      <point x="844" y="653"/>
    </contour>
    <contour>
      <point x="361" y="654" type="curve" smooth="yes"/>
      <point x="393" y="654"/>
      <point x="426" y="674"/>
      <point x="426" y="714" type="curve" smooth="yes"/>
      <point x="426" y="1277" type="line"/>
      <point x="615" y="1277" type="line" smooth="yes"/>
      <point x="645" y="1277"/>
      <point x="660" y="1301"/>
      <point x="660" y="1323" type="curve" smooth="yes"/>
      <point x="660" y="1348"/>
      <point x="645" y="1372"/>
      <point x="615" y="1372" type="curve" smooth="yes"/>
      <point x="108" y="1372" type="line" smooth="yes"/>
      <point x="77" y="1372"/>
      <point x="62" y="1348"/>
      <point x="62" y="1324" type="curve" smooth="yes"/>
      <point x="62" y="1301"/>
      <point x="78" y="1277"/>
      <point x="108" y="1277" type="curve" smooth="yes"/>
      <point x="298" y="1277" type="line"/>
      <point x="298" y="714" type="line" smooth="yes"/>
      <point x="298" y="674"/>
      <point x="330" y="654"/>
    </contour>
  </outline>
</glyph>
<glyph name="partialdiff" format="1">
  <advance width="1142"/>
  <unicode hex="2202"/>
  <outline>
    <contour>
      <point x="510" y="-24" type="curve" smooth="yes"/>
      <point x="854" y="-24"/>
      <point x="1037" y="346"/>
      <point x="1037" y="822" type="curve" smooth="yes"/>
      <point x="1037" y="1361"/>
      <point x="809" y="1603"/>
      <point x="501" y="1603" type="curve" smooth="yes"/>
      <point x="385" y="1603"/>
      <point x="272" y="1572"/>
      <point x="165" y="1524" type="curve" smooth="yes"/>
      <point x="138" y="1511"/>
      <point x="127" y="1491"/>
      <point x="127" y="1468" type="curve" smooth="yes"/>
      <point x="127" y="1434"/>
      <point x="154" y="1399"/>
      <point x="190" y="1399" type="curve" smooth="yes"/>
      <point x="199" y="1399"/>
      <point x="207" y="1401"/>
      <point x="214" y="1404" type="curve" smooth="yes"/>
      <point x="306" y="1440"/>
      <point x="400" y="1469"/>
      <point x="491" y="1469" type="curve" smooth="yes"/>
      <point x="716" y="1469"/>
      <point x="882" y="1296"/>
      <point x="882" y="863" type="curve" smooth="yes"/>
      <point x="882" y="799"/>
      <point x="881" y="785"/>
      <point x="880" y="774" type="curve"/>
      <point x="876" y="778"/>
      <point x="726" y="975"/>
      <point x="530" y="975" type="curve" smooth="yes"/>
      <point x="294" y="975"/>
      <point x="87" y="771"/>
      <point x="87" y="451" type="curve" smooth="yes"/>
      <point x="87" y="218"/>
      <point x="222" y="-24"/>
    </contour>
    <contour>
      <point x="522" y="106" type="line" smooth="yes"/>
      <point x="356" y="106"/>
      <point x="244" y="252"/>
      <point x="244" y="453" type="curve" smooth="yes"/>
      <point x="244" y="671"/>
      <point x="386" y="848"/>
      <point x="558" y="848" type="curve" smooth="yes"/>
      <point x="721" y="848"/>
      <point x="830" y="713"/>
      <point x="860" y="620" type="curve"/>
      <point x="833" y="351"/>
      <point x="712" y="106"/>
      <point x="524" y="106" type="curve" smooth="yes"/>
    </contour>
  </outline>
</glyph>
<glyph name="emptyset" format="1">
  <advance width="1745"/>
  <unicode hex="2205"/>
  <outline>
    <contour>
      <point x="639" y="246" type="curve"/>
      <point x="1223" y="1007" type="line"/>
      <point x="1309" y="920"/>
      <point x="1360" y="801"/>
      <point x="1360" y="669" type="curve" smooth="yes"/>
      <point x="1360" y="389"/>
      <point x="1137" y="190"/>
      <point x="874" y="190" type="curve" smooth="yes"/>
      <point x="787" y="190"/>
      <point x="708" y="210"/>
    </contour>
    <contour>
      <point x="544" y="312" type="line"/>
      <point x="446" y="400"/>
      <point x="386" y="527"/>
      <point x="386" y="669" type="curve" smooth="yes"/>
      <point x="386" y="941"/>
      <point x="599" y="1148"/>
      <point x="874" y="1148" type="curve" smooth="yes"/>
      <point x="971" y="1148"/>
      <point x="1059" y="1122"/>
      <point x="1132" y="1078" type="curve"/>
    </contour>
    <contour>
      <point x="364" y="58" type="curve" smooth="yes"/>
      <point x="364" y="31"/>
      <point x="386" y="-3"/>
      <point x="419" y="-3" type="curve" smooth="yes"/>
      <point x="449" y="-3"/>
      <point x="473" y="30"/>
      <point x="495" y="59" type="curve" smooth="yes"/>
      <point x="577" y="166" type="line"/>
      <point x="666" y="119"/>
      <point x="768" y="92"/>
      <point x="874" y="92" type="curve" smooth="yes"/>
      <point x="1206" y="92"/>
      <point x="1478" y="352"/>
      <point x="1478" y="669" type="curve" smooth="yes"/>
      <point x="1478" y="839"/>
      <point x="1403" y="988"/>
      <point x="1288" y="1092" type="curve"/>
      <point x="1381" y="1212" type="line"/>
      <point x="1397" y="1235"/>
      <point x="1420" y="1260"/>
      <point x="1420" y="1286" type="curve" smooth="yes"/>
      <point x="1420" y="1315"/>
      <point x="1398" y="1345"/>
      <point x="1367" y="1345" type="curve" smooth="yes"/>
      <point x="1349" y="1345"/>
      <point x="1331" y="1338"/>
      <point x="1314" y="1316" type="curve" smooth="yes"/>
      <point x="1195" y="1161" type="line"/>
      <point x="1100" y="1218"/>
      <point x="989" y="1251"/>
      <point x="874" y="1251" type="curve" smooth="yes"/>
      <point x="526" y="1251"/>
      <point x="267" y="977"/>
      <point x="267" y="669" type="curve" smooth="yes"/>
      <point x="267" y="489"/>
      <point x="352" y="333"/>
      <point x="481" y="229" type="curve"/>
      <point x="402" y="127" type="line"/>
      <point x="385" y="107"/>
      <point x="364" y="78"/>
    </contour>
  </outline>
</glyph>
<glyph name="product" format="1">
  <advance width="1458"/>
  <unicode hex="220F"/>
  <outline>
    <contour>
      <point x="358" y="0" type="curve" smooth="yes"/>
      <point x="397" y="0"/>
      <point x="436" y="25"/>
      <point x="436" y="76" type="curve" smooth="yes"/>
      <point x="436" y="1291" type="line"/>
      <point x="1019" y="1291" type="line"/>
      <point x="1019" y="76" type="line" smooth="yes"/>
      <point x="1019" y="25"/>
      <point x="1058" y="0"/>
      <point x="1097" y="0" type="curve" smooth="yes"/>
      <point x="1135" y="0"/>
      <point x="1175" y="25"/>
      <point x="1175" y="76" type="curve" smooth="yes"/>
      <point x="1176" y="1291" type="line"/>
      <point x="1319" y="1291" type="line" smooth="yes"/>
      <point x="1362" y="1291"/>
      <point x="1383" y="1325"/>
      <point x="1383" y="1359" type="curve" smooth="yes"/>
      <point x="1383" y="1395"/>
      <point x="1362" y="1429"/>
      <point x="1319" y="1429" type="curve" smooth="yes"/>
      <point x="134" y="1429" type="line" smooth="yes"/>
      <point x="87" y="1429"/>
      <point x="63" y="1394"/>
      <point x="63" y="1359" type="curve" smooth="yes"/>
      <point x="63" y="1325"/>
      <point x="87" y="1291"/>
      <point x="134" y="1291" type="curve" smooth="yes"/>
      <point x="281" y="1291" type="line"/>
      <point x="281" y="76" type="line" smooth="yes"/>
      <point x="281" y="25"/>
      <point x="319" y="0"/>
    </contour>
  </outline>
</glyph>
<glyph name="summation" format="1">
  <advance width="1157"/>
  <unicode hex="2211"/>
  <outline>
    <contour>
      <point x="101" y="-198" type="curve" smooth="yes"/>
      <point x="1112" y="-198" type="line" smooth="yes"/>
      <point x="1159" y="-198"/>
      <point x="1183" y="-161"/>
      <point x="1183" y="-125" type="curve" smooth="yes"/>
      <point x="1183" y="-88"/>
      <point x="1159" y="-52"/>
      <point x="1112" y="-52" type="curve" smooth="yes"/>
      <point x="254" y="-52" type="line"/>
      <point x="789" y="635" type="line"/>
      <point x="294" y="1297" type="line"/>
      <point x="1079" y="1297" type="line" smooth="yes"/>
      <point x="1123" y="1297"/>
      <point x="1145" y="1329"/>
      <point x="1145" y="1363" type="curve" smooth="yes"/>
      <point x="1145" y="1396"/>
      <point x="1123" y="1429"/>
      <point x="1079" y="1429" type="curve" smooth="yes"/>
      <point x="132" y="1429" type="line" smooth="yes"/>
      <point x="77" y="1429"/>
      <point x="58" y="1400"/>
      <point x="58" y="1369" type="curve" smooth="yes"/>
      <point x="58" y="1350"/>
      <point x="65" y="1334"/>
      <point x="74" y="1322" type="curve" smooth="yes"/>
      <point x="606" y="613" type="line"/>
      <point x="49" y="-96" type="line" smooth="yes"/>
      <point x="39" y="-108"/>
      <point x="34" y="-123"/>
      <point x="34" y="-139" type="curve" smooth="yes"/>
      <point x="34" y="-168"/>
      <point x="51" y="-198"/>
    </contour>
  </outline>
</glyph>
<glyph name="radical" format="1">
  <advance width="1286"/>
  <unicode hex="221A"/>
  <outline>
    <contour>
      <point x="483" y="-132" type="curve" smooth="yes"/>
      <point x="549" y="-132"/>
      <point x="601" y="-106"/>
      <point x="627" y="-28" type="curve" smooth="yes"/>
      <point x="1170" y="1441" type="line" smooth="yes"/>
      <point x="1174" y="1452"/>
      <point x="1175" y="1459"/>
      <point x="1175" y="1468" type="curve" smooth="yes"/>
      <point x="1175" y="1511"/>
      <point x="1136" y="1541"/>
      <point x="1094" y="1541" type="curve" smooth="yes"/>
      <point x="1059" y="1541"/>
      <point x="1029" y="1520"/>
      <point x="1015" y="1482" type="curve" smooth="yes"/>
      <point x="484" y="62" type="line"/>
      <point x="481" y="61" type="line"/>
      <point x="264" y="505" type="line" smooth="yes"/>
      <point x="248" y="540"/>
      <point x="216" y="556"/>
      <point x="182" y="554" type="curve" smooth="yes"/>
      <point x="138" y="549"/>
      <point x="96" y="510"/>
      <point x="100" y="463" type="curve" smooth="yes"/>
      <point x="101" y="455"/>
      <point x="103" y="446"/>
      <point x="108" y="438" type="curve" smooth="yes"/>
      <point x="343" y="-24" type="line"/>
      <point x="370" y="-105"/>
      <point x="422" y="-132"/>
    </contour>
  </outline>
</glyph>
<glyph name="integral" format="1">
  <advance width="738"/>
  <unicode hex="222B"/>
  <outline>
    <contour>
      <point x="161" y="-331" type="curve" smooth="yes"/>
      <point x="312" y="-331"/>
      <point x="457" y="-240"/>
      <point x="457" y="189" type="curve" smooth="yes"/>
      <point x="457" y="521"/>
      <point x="429" y="899"/>
      <point x="429" y="1219" type="curve" smooth="yes"/>
      <point x="429" y="1515"/>
      <point x="480" y="1634"/>
      <point x="605" y="1634" type="curve" smooth="yes"/>
      <point x="658" y="1634"/>
      <point x="688" y="1662"/>
      <point x="688" y="1693" type="curve" smooth="yes"/>
      <point x="688" y="1721"/>
      <point x="660" y="1750"/>
      <point x="593" y="1750" type="curve" smooth="yes"/>
      <point x="402" y="1750"/>
      <point x="286" y="1605"/>
      <point x="286" y="1234" type="curve" smooth="yes"/>
      <point x="286" y="912"/>
      <point x="316" y="526"/>
      <point x="316" y="191" type="curve" smooth="yes"/>
      <point x="316" y="-162"/>
      <point x="224" y="-208"/>
      <point x="142" y="-208" type="curve" smooth="yes"/>
      <point x="87" y="-208"/>
      <point x="58" y="-237"/>
      <point x="58" y="-267" type="curve" smooth="yes"/>
      <point x="58" y="-299"/>
      <point x="91" y="-331"/>
    </contour>
  </outline>
</glyph>
<glyph name="approxequal" format="1">
  <advance width="1169"/>
  <unicode hex="2248"/>
  <outline>
    <contour>
      <point x="820" y="319" type="curve" smooth="yes"/>
      <point x="897" y="319"/>
      <point x="963" y="372"/>
      <point x="963" y="475" type="curve" smooth="yes"/>
      <point x="963" y="505"/>
      <point x="933" y="526"/>
      <point x="907" y="526" type="curve" smooth="yes"/>
      <point x="835" y="526"/>
      <point x="856" y="450"/>
      <point x="813" y="450" type="curve" smooth="yes"/>
      <point x="764" y="450"/>
      <point x="414" y="526"/>
      <point x="321" y="526" type="curve" smooth="yes"/>
      <point x="263" y="526"/>
      <point x="175" y="485"/>
      <point x="175" y="372" type="curve" smooth="yes"/>
      <point x="175" y="344"/>
      <point x="198" y="322"/>
      <point x="227" y="322" type="curve" smooth="yes"/>
      <point x="240" y="322"/>
      <point x="252" y="322"/>
      <point x="262" y="331" type="curve" smooth="yes"/>
      <point x="306" y="363"/>
      <point x="297" y="397"/>
      <point x="337" y="397" type="curve" smooth="yes"/>
      <point x="392" y="393"/>
      <point x="735" y="319"/>
    </contour>
    <contour>
      <point x="820" y="657" type="curve" smooth="yes"/>
      <point x="897" y="657"/>
      <point x="963" y="709"/>
      <point x="963" y="811" type="curve" smooth="yes"/>
      <point x="963" y="843"/>
      <point x="933" y="864"/>
      <point x="907" y="864" type="curve" smooth="yes"/>
      <point x="835" y="864"/>
      <point x="856" y="787"/>
      <point x="813" y="787" type="curve" smooth="yes"/>
      <point x="764" y="787"/>
      <point x="414" y="864"/>
      <point x="321" y="864" type="curve" smooth="yes"/>
      <point x="263" y="864"/>
      <point x="175" y="822"/>
      <point x="175" y="709" type="curve" smooth="yes"/>
      <point x="175" y="681"/>
      <point x="198" y="659"/>
      <point x="227" y="659" type="curve" smooth="yes"/>
      <point x="240" y="659"/>
      <point x="252" y="660"/>
      <point x="262" y="668" type="curve" smooth="yes"/>
      <point x="306" y="701"/>
      <point x="297" y="735"/>
      <point x="337" y="735" type="curve" smooth="yes"/>
      <point x="392" y="731"/>
      <point x="735" y="657"/>
    </contour>
  </outline>
</glyph>
<glyph name="notequal" format="1">
  <advance width="1165"/>
  <unicode hex="2260"/>
  <outline>
    <contour>
      <point x="343" y="-5" type="curve" smooth="yes"/>
      <point x="370" y="-5"/>
      <point x="393" y="7"/>
      <point x="407" y="38" type="curve" smooth="yes"/>
      <point x="528" y="294" type="line"/>
      <point x="1036" y="294" type="line" smooth="yes"/>
      <point x="1081" y="294"/>
      <point x="1104" y="326"/>
      <point x="1104" y="361" type="curve" smooth="yes"/>
      <point x="1104" y="394"/>
      <point x="1081" y="426"/>
      <point x="1036" y="426" type="curve" smooth="yes"/>
      <point x="589" y="426" type="line"/>
      <point x="710" y="687" type="line"/>
      <point x="1036" y="687" type="line" smooth="yes"/>
      <point x="1081" y="687"/>
      <point x="1103" y="719"/>
      <point x="1103" y="752" type="curve" smooth="yes"/>
      <point x="1103" y="787"/>
      <point x="1080" y="820"/>
      <point x="1036" y="820" type="curve" smooth="yes"/>
      <point x="771" y="820" type="line"/>
      <point x="860" y="1008" type="line" smooth="yes"/>
      <point x="865" y="1019"/>
      <point x="868" y="1030"/>
      <point x="868" y="1042" type="curve" smooth="yes"/>
      <point x="868" y="1080"/>
      <point x="833" y="1105"/>
      <point x="798" y="1105" type="curve" smooth="yes"/>
      <point x="771" y="1105"/>
      <point x="745" y="1092"/>
      <point x="731" y="1062" type="curve" smooth="yes"/>
      <point x="619" y="820" type="line"/>
      <point x="149" y="820" type="line" smooth="yes"/>
      <point x="104" y="820"/>
      <point x="83" y="787"/>
      <point x="83" y="754" type="curve" smooth="yes"/>
      <point x="83" y="719"/>
      <point x="105" y="687"/>
      <point x="149" y="687" type="curve" smooth="yes"/>
      <point x="558" y="687" type="line"/>
      <point x="437" y="426" type="line"/>
      <point x="149" y="426" type="line" smooth="yes"/>
      <point x="104" y="426"/>
      <point x="83" y="394"/>
      <point x="83" y="361" type="curve" smooth="yes"/>
      <point x="83" y="326"/>
      <point x="105" y="294"/>
      <point x="149" y="294" type="curve" smooth="yes"/>
      <point x="377" y="294" type="line"/>
      <point x="283" y="92" type="line" smooth="yes"/>
      <point x="276" y="80"/>
      <point x="275" y="69"/>
      <point x="275" y="58" type="curve" smooth="yes"/>
      <point x="275" y="20"/>
      <point x="308" y="-5"/>
    </contour>
  </outline>
</glyph>
<glyph name="lessequal" format="1">
  <advance width="1169"/>
  <unicode hex="2264"/>
  <outline>
    <contour>
      <point x="1030" y="210" type="curve" smooth="yes"/>
      <point x="1066" y="210"/>
      <point x="1090" y="243"/>
      <point x="1090" y="275" type="curve" smooth="yes"/>
      <point x="1090" y="297"/>
      <point x="1081" y="316"/>
      <point x="1054" y="328" type="curve" smooth="yes"/>
      <point x="243" y="689" type="line"/>
      <point x="1052" y="1031" type="line" smooth="yes"/>
      <point x="1078" y="1043"/>
      <point x="1090" y="1065"/>
      <point x="1090" y="1085" type="curve" smooth="yes"/>
      <point x="1090" y="1119"/>
      <point x="1064" y="1152"/>
      <point x="1026" y="1152" type="curve" smooth="yes"/>
      <point x="1018" y="1152"/>
      <point x="1009" y="1150"/>
      <point x="1000" y="1146" type="curve"/>
      <point x="109" y="765" type="line" smooth="yes"/>
      <point x="68" y="747"/>
      <point x="50" y="719"/>
      <point x="50" y="690" type="curve" smooth="yes"/>
      <point x="50" y="661"/>
      <point x="67" y="634"/>
      <point x="106" y="618" type="curve"/>
      <point x="1002" y="217" type="line" smooth="yes"/>
      <point x="1011" y="212"/>
      <point x="1021" y="210"/>
    </contour>
    <contour>
      <point x="157" y="14" type="curve" smooth="yes"/>
      <point x="1005" y="14" type="line" smooth="yes"/>
      <point x="1039" y="14"/>
      <point x="1058" y="41"/>
      <point x="1058" y="66" type="curve" smooth="yes"/>
      <point x="1058" y="93"/>
      <point x="1041" y="119"/>
      <point x="1005" y="119" type="curve" smooth="yes"/>
      <point x="157" y="119" type="line" smooth="yes"/>
      <point x="121" y="119"/>
      <point x="104" y="93"/>
      <point x="104" y="66" type="curve" smooth="yes"/>
      <point x="104" y="41"/>
      <point x="122" y="14"/>
    </contour>
  </outline>
</glyph>
<glyph name="fl" format="1">
  <advance width="1156"/>
  <unicode hex="FB02"/>
  <outline>
    <contour>
      <point x="315" y="1" type="curve" smooth="yes"/>
      <point x="353" y="1"/>
      <point x="390" y="26"/>
      <point x="390" y="74" type="curve" smooth="yes"/>
      <point x="390" y="871" type="line"/>
      <point x="557" y="871" type="line" smooth="yes"/>
      <point x="597" y="871"/>
      <point x="617" y="901"/>
      <point x="617" y="931" type="curve" smooth="yes"/>
      <point x="617" y="961"/>
      <point x="597" y="990"/>
      <point x="557" y="990" type="curve" smooth="yes"/>
      <point x="390" y="990" type="line"/>
      <point x="390" y="1024" type="line" smooth="yes"/>
      <point x="390" y="1257"/>
      <point x="407" y="1335"/>
      <point x="517" y="1335" type="curve" smooth="yes"/>
      <point x="774" y="1335" type="line"/>
      <point x="774" y="75" type="line" smooth="yes"/>
      <point x="774" y="23"/>
      <point x="809" y="0"/>
      <point x="846" y="0" type="curve" smooth="yes"/>
      <point x="882" y="0"/>
      <point x="921" y="26"/>
      <point x="921" y="75" type="curve" smooth="yes"/>
      <point x="921" y="1349" type="line" smooth="yes"/>
      <point x="921" y="1400"/>
      <point x="885" y="1423"/>
      <point x="849" y="1423" type="curve" smooth="yes"/>
      <point x="812" y="1423"/>
      <point x="778" y="1400"/>
      <point x="775" y="1354" type="curve"/>
      <point x="769" y="1362"/>
      <point x="697" y="1446"/>
      <point x="484" y="1446" type="curve"/>
      <point x="343" y="1446"/>
      <point x="243" y="1358"/>
      <point x="243" y="1104" type="curve" smooth="yes"/>
      <point x="243" y="990" type="line"/>
      <point x="99" y="990" type="line" smooth="yes"/>
      <point x="58" y="990"/>
      <point x="38" y="961"/>
      <point x="38" y="931" type="curve" smooth="yes"/>
      <point x="38" y="902"/>
      <point x="58" y="871"/>
      <point x="99" y="871" type="curve" smooth="yes"/>
      <point x="243" y="871" type="line"/>
      <point x="243" y="74" type="line" smooth="yes"/>
      <point x="243" y="25"/>
      <point x="280" y="1"/>
    </contour>
  </outline>
</glyph>
